<svg width="600" height="600" viewBox="0 0 600 600" fill="none" xmlns="http://www.w3.org/2000/svg">
<g clip-path="url(#clip0_10_2)">
<path d="M300 600C465.685 600 600 465.685 600 300C600 134.315 465.685 0 300 0C134.315 0 0 134.315 0 300C0 465.685 134.315 600 300 600Z" fill="#8F8C99"/>
<path d="M397.547 92.0842H331.09C291.652 92.0842 247.786 108.671 247.786 165.838C247.978 185.758 247.786 204.834 247.786 226.304H202.161V298.906H249.197V507.915H335.629V297.527H392.677L397.839 226.1H334.14C334.14 226.1 334.282 194.327 334.14 185.1C334.14 162.508 357.647 163.802 359.061 163.802C370.247 163.802 391.996 163.835 397.58 163.802V92.0842H397.547Z" fill="white"/>
</g>
<defs>
<clipPath id="clip0_10_2">
<rect width="600" height="600" fill="white"/>
</clipPath>
</defs>
</svg>
