<svg width="2500" height="2500" viewBox="0 0 2500 2500" fill="none" xmlns="http://www.w3.org/2000/svg">
<g clip-path="url(#clip0_8_9)">
<path d="M2297.82 569.631C2290.27 514.262 2280.2 462.248 2267.62 414.429C2233.22 289.429 2177.01 188.758 2102.35 114.933L2090.6 103.188L2075.5 98.9932C2030.2 86.4093 1936.24 88.9261 1820.47 136.745C1645.13 47.8187 1449.66 -6.86646e-05 1251.68 -6.86646e-05C1053.69 -6.86646e-05 855.705 47.8187 682.047 137.584C566.275 89.765 472.315 85.5704 427.013 99.8321L410.235 104.027L398.49 115.772C322.986 188.758 266.778 290.268 233.221 415.268C220.637 463.087 208.893 515.101 203.02 570.47C70.4697 771.812 -0.00012207 1007.55 -0.00012207 1250C-0.00012207 1419.46 32.718 1582.21 98.1542 1735.74C161.074 1885.07 250.839 2018.46 365.772 2133.39C480.705 2248.32 614.094 2338.09 763.423 2401.01C917.785 2467.28 1082.21 2500 1250 2500C1417.79 2500 1582.21 2467.28 1735.74 2401.85C1885.07 2338.93 2018.46 2249.16 2133.39 2134.23C2248.32 2019.3 2338.09 1885.91 2401.01 1736.58C2467.28 1582.21 2500 1417.79 2500 1250C2500 1007.55 2430.37 771.812 2297.82 569.631Z" fill="white"/>
<path d="M1250 2455.54C1915.8 2455.54 2455.54 1915.8 2455.54 1250C2455.54 584.2 1915.8 44.463 1250 44.463C584.2 44.463 44.463 584.2 44.463 1250C44.463 1915.8 584.2 2455.54 1250 2455.54Z" fill="url(#paint0_linear_8_9)"/>
<path d="M2458.05 1248.32C2458.05 955.537 2354.87 687.919 2180.37 479.027L1978.19 354.027L1840.6 499.161L512.584 2014.26L1132.55 2448.83C1171.98 2453.02 1212.25 2455.54 1252.52 2455.54C1917.79 2454.7 2458.05 1914.43 2458.05 1248.32Z" fill="#EFC700"/>
<path d="M2103.19 1882.55L2421.14 1524.33L2286.91 1496.64L2416.95 1434.56L2217.28 1302.01L2417.79 1265.1L2169.46 1042.79C2169.46 1042.79 2183.72 1180.37 2151.85 1474.83C2120.81 1771.81 2103.19 1882.55 2103.19 1882.55Z" fill="#423F4C"/>
<path d="M2099.83 1899.33C2098.15 1899.33 2097.32 1897.65 2094.8 1897.65C2087.25 1893.46 2083.05 1885.91 2084.73 1878.36C2084.73 1876.68 2102.35 1763.42 2134.23 1473.15C2166.11 1183.72 2153.52 1046.14 2151.85 1043.62C2150.17 1036.07 2154.36 1029.36 2161.91 1026.01C2168.62 1021.81 2176.17 1023.49 2182.05 1028.52L2432.05 1251.68C2437.08 1256.71 2439.6 1263.42 2437.08 1269.3C2435.4 1276.01 2429.53 1281.04 2422.82 1281.88L2265.1 1309.56L2427.85 1417.79C2432.89 1421.98 2437.08 1427.85 2435.4 1434.56C2435.4 1441.28 2431.21 1447.15 2425.34 1449.66L2342.28 1489.09L2424.5 1506.71C2431.21 1508.39 2436.24 1513.42 2437.08 1518.46C2439.6 1525.17 2437.08 1531.04 2432.89 1536.07L2115.77 1893.46C2112.42 1899.33 2105.7 1900.17 2099.83 1899.33ZM2192.11 1085.57C2194.63 1147.65 2193.79 1275.17 2171.98 1478.19C2152.68 1653.52 2139.26 1765.94 2130.03 1826.34L2389.26 1534.4L2286.07 1512.58C2278.52 1510.91 2273.49 1505.03 2271.81 1497.48C2270.13 1489.93 2274.33 1482.38 2281.88 1479.87L2384.23 1430.37L2209.73 1317.11C2203.02 1312.92 2200.5 1305.37 2202.18 1297.82C2203.86 1290.27 2209.73 1285.23 2216.44 1283.56L2381.71 1254.19L2192.11 1085.57Z" fill="black"/>
<path d="M414.43 1882.55L96.4764 1524.33L230.705 1496.64L99.8321 1434.56L299.497 1302.01L98.9932 1265.1L347.315 1042.79C347.315 1042.79 333.054 1180.37 364.933 1474.83C396.812 1769.3 414.43 1882.55 414.43 1882.55Z" fill="#423F4C"/>
<path d="M401.846 1894.3L83.0536 1535.23C78.859 1530.2 78.0201 1523.49 78.859 1517.62C81.3758 1510.91 86.4093 1507.55 91.4429 1505.87L173.658 1488.26L90.604 1448.83C83.8926 1446.31 80.5368 1439.6 80.5368 1433.72C80.5368 1427.01 83.0536 1421.14 88.0872 1416.95L251.678 1309.56L93.9597 1281.88C87.2483 1280.2 81.3758 1275.17 79.6979 1269.3C78.0201 1262.58 79.6979 1255.03 84.7315 1251.68L333.054 1029.36C338.087 1024.33 347.315 1022.65 353.188 1026.85C359.899 1031.04 363.255 1036.91 363.255 1044.46C363.255 1046.14 348.993 1184.56 380.872 1473.99C412.752 1764.26 430.369 1878.36 430.369 1879.19C432.047 1886.74 427.852 1894.3 420.302 1898.49C418.624 1900.17 417.785 1900.17 415.268 1900.17C411.913 1900.17 405.201 1899.33 401.846 1894.3ZM137.584 1254.19L302.852 1283.56C310.403 1285.23 315.436 1290.27 317.114 1297.82C318.792 1305.37 315.436 1312.08 309.564 1317.11L135.067 1432.05L237.416 1481.54C244.127 1485.74 249.161 1491.61 247.483 1499.16C245.805 1506.71 240.772 1513.42 233.221 1514.26L130.033 1536.07L389.262 1828.02C380.034 1767.62 366.611 1656.04 347.315 1479.87C324.664 1276.85 324.664 1149.33 327.181 1087.25L137.584 1254.19Z" fill="black"/>
<path d="M2280.26 1630.9L2278.91 1632.3C2278.42 1631.99 2277.93 1631.79 2277.43 1631.7C2276.93 1631.61 2276.43 1631.61 2275.94 1631.7C2275.45 1631.78 2274.98 1631.95 2274.53 1632.2C2274.08 1632.45 2273.67 1632.76 2273.3 1633.15C2272.62 1633.84 2272.18 1634.65 2271.98 1635.56C2271.79 1636.46 2271.87 1637.41 2272.23 1638.42C2272.6 1639.41 2273.28 1640.4 2274.27 1641.37C2275.27 1642.34 2276.27 1642.99 2277.28 1643.33C2278.29 1643.67 2279.25 1643.72 2280.15 1643.51C2281.05 1643.28 2281.84 1642.82 2282.52 1642.13C2282.89 1641.74 2283.2 1641.33 2283.44 1640.87C2283.67 1640.42 2283.83 1639.94 2283.91 1639.46C2283.98 1638.96 2283.96 1638.46 2283.86 1637.96C2283.75 1637.46 2283.54 1636.97 2283.22 1636.5L2284.58 1635.11C2285.07 1635.79 2285.41 1636.49 2285.6 1637.22C2285.8 1637.95 2285.86 1638.68 2285.78 1639.41C2285.7 1640.14 2285.5 1640.84 2285.16 1641.51C2284.84 1642.19 2284.39 1642.82 2283.82 1643.4C2282.87 1644.38 2281.78 1645.02 2280.55 1645.32C2279.33 1645.61 2278.06 1645.55 2276.75 1645.13C2275.44 1644.7 2274.17 1643.9 2272.96 1642.72C2271.75 1641.53 2270.91 1640.29 2270.45 1638.99C2270 1637.69 2269.9 1636.43 2270.17 1635.2C2270.43 1633.96 2271.04 1632.86 2272 1631.88C2272.56 1631.29 2273.18 1630.83 2273.84 1630.49C2274.51 1630.14 2275.21 1629.92 2275.94 1629.82C2276.66 1629.72 2277.39 1629.76 2278.13 1629.94C2278.86 1630.11 2279.57 1630.43 2280.26 1630.9ZM2292.87 1634.2C2292.34 1634.74 2291.75 1635.14 2291.11 1635.38C2290.47 1635.63 2289.82 1635.69 2289.17 1635.56C2288.52 1635.44 2287.91 1635.1 2287.35 1634.56C2286.86 1634.07 2286.55 1633.59 2286.43 1633.09C2286.31 1632.59 2286.32 1632.1 2286.46 1631.6C2286.61 1631.1 2286.83 1630.61 2287.12 1630.14C2287.42 1629.65 2287.74 1629.18 2288.08 1628.73C2288.52 1628.14 2288.88 1627.67 2289.17 1627.31C2289.45 1626.94 2289.62 1626.64 2289.68 1626.41C2289.75 1626.17 2289.67 1625.95 2289.46 1625.74L2289.41 1625.7C2288.86 1625.15 2288.28 1624.89 2287.68 1624.89C2287.08 1624.89 2286.48 1625.2 2285.88 1625.81C2285.27 1626.44 2284.92 1627.07 2284.85 1627.7C2284.78 1628.33 2284.83 1628.87 2285 1629.33L2283.32 1630.15C2283.02 1629.41 2282.9 1628.71 2282.97 1628.05C2283.05 1627.39 2283.24 1626.77 2283.56 1626.22C2283.88 1625.65 2284.25 1625.15 2284.67 1624.71C2284.94 1624.44 2285.29 1624.15 2285.7 1623.86C2286.12 1623.56 2286.6 1623.33 2287.13 1623.19C2287.66 1623.05 2288.24 1623.07 2288.87 1623.24C2289.5 1623.41 2290.15 1623.83 2290.84 1624.5L2296.53 1630.04L2295.23 1631.37L2294.07 1630.23L2294 1630.3C2294.1 1630.57 2294.15 1630.91 2294.16 1631.33C2294.17 1631.75 2294.08 1632.21 2293.89 1632.7C2293.7 1633.2 2293.36 1633.69 2292.87 1634.2ZM2291.88 1632.83C2292.39 1632.31 2292.72 1631.77 2292.86 1631.2C2293.01 1630.64 2293.01 1630.11 2292.86 1629.61C2292.72 1629.1 2292.47 1628.67 2292.11 1628.32L2290.9 1627.14C2290.91 1627.26 2290.85 1627.45 2290.72 1627.69C2290.59 1627.93 2290.42 1628.19 2290.23 1628.48C2290.03 1628.76 2289.83 1629.03 2289.63 1629.29C2289.43 1629.55 2289.28 1629.76 2289.16 1629.92C2288.87 1630.3 2288.62 1630.7 2288.43 1631.1C2288.24 1631.49 2288.16 1631.87 2288.18 1632.25C2288.2 1632.62 2288.37 1632.97 2288.71 1633.3C2289.17 1633.74 2289.69 1633.91 2290.26 1633.8C2290.82 1633.68 2291.37 1633.36 2291.88 1632.83ZM2293.91 1615.46L2295.03 1616.55L2290.68 1621.02L2289.55 1619.93L2293.91 1615.46ZM2288.75 1616.61L2290.05 1615.28L2298.27 1623.3C2298.65 1623.67 2298.98 1623.88 2299.28 1623.96C2299.57 1624.02 2299.83 1624 2300.06 1623.89C2300.3 1623.77 2300.51 1623.62 2300.7 1623.42C2300.84 1623.28 2300.95 1623.15 2301.02 1623.04C2301.1 1622.93 2301.15 1622.84 2301.2 1622.77L2302.65 1623.66C2302.6 1623.79 2302.51 1623.95 2302.39 1624.14C2302.27 1624.34 2302.09 1624.56 2301.85 1624.81C2301.48 1625.18 2301.04 1625.47 2300.53 1625.67C2300.02 1625.87 2299.49 1625.93 2298.93 1625.84C2298.37 1625.76 2297.84 1625.47 2297.34 1624.98L2288.75 1616.61ZM2305.77 1604.72L2304.41 1606.11C2303.93 1605.8 2303.44 1605.6 2302.94 1605.51C2302.44 1605.42 2301.94 1605.42 2301.45 1605.51C2300.96 1605.6 2300.49 1605.76 2300.04 1606.01C2299.59 1606.26 2299.18 1606.58 2298.81 1606.96C2298.13 1607.66 2297.69 1608.46 2297.49 1609.37C2297.3 1610.28 2297.38 1611.23 2297.74 1612.23C2298.11 1613.23 2298.79 1614.21 2299.78 1615.18C2300.78 1616.16 2301.78 1616.81 2302.79 1617.15C2303.8 1617.48 2304.75 1617.54 2305.65 1617.32C2306.56 1617.1 2307.35 1616.64 2308.03 1615.94C2308.4 1615.56 2308.71 1615.14 2308.94 1614.69C2309.18 1614.23 2309.34 1613.76 2309.41 1613.27C2309.49 1612.77 2309.47 1612.28 2309.37 1611.78C2309.26 1611.27 2309.05 1610.79 2308.73 1610.32L2310.09 1608.92C2310.58 1609.6 2310.92 1610.31 2311.11 1611.04C2311.3 1611.76 2311.36 1612.49 2311.29 1613.22C2311.21 1613.95 2311 1614.65 2310.67 1615.33C2310.34 1616 2309.9 1616.63 2309.33 1617.21C2308.38 1618.19 2307.29 1618.83 2306.06 1619.13C2304.84 1619.43 2303.57 1619.36 2302.26 1618.94C2300.95 1618.52 2299.68 1617.72 2298.47 1616.53C2297.25 1615.35 2296.42 1614.11 2295.96 1612.81C2295.5 1611.51 2295.41 1610.24 2295.67 1609.01C2295.94 1607.78 2296.55 1606.67 2297.51 1605.69C2298.07 1605.11 2298.69 1604.65 2299.35 1604.3C2300.02 1603.95 2300.72 1603.73 2301.45 1603.64C2302.17 1603.54 2302.9 1603.58 2303.63 1603.75C2304.37 1603.92 2305.08 1604.25 2305.77 1604.72ZM2319.3 1607.02C2318.54 1607.8 2317.69 1608.31 2316.75 1608.53C2315.81 1608.76 2314.84 1608.71 2313.85 1608.39C2312.87 1608.06 2311.93 1607.47 2311.04 1606.6C2310.14 1605.72 2309.51 1604.79 2309.16 1603.81C2308.81 1602.83 2308.74 1601.87 2308.93 1600.92C2309.14 1599.97 2309.62 1599.11 2310.38 1598.33C2311.14 1597.55 2311.99 1597.05 2312.93 1596.82C2313.87 1596.6 2314.84 1596.65 2315.83 1596.97C2316.82 1597.3 2317.76 1597.9 2318.66 1598.77C2319.55 1599.64 2320.17 1600.57 2320.52 1601.55C2320.87 1602.52 2320.94 1603.48 2320.74 1604.43C2320.54 1605.38 2320.06 1606.24 2319.3 1607.02ZM2318.11 1605.86C2318.69 1605.27 2319.01 1604.63 2319.08 1603.96C2319.15 1603.28 2319.02 1602.61 2318.71 1601.94C2318.39 1601.28 2317.95 1600.66 2317.37 1600.1C2316.79 1599.54 2316.17 1599.11 2315.49 1598.8C2314.81 1598.5 2314.13 1598.39 2313.45 1598.48C2312.77 1598.56 2312.15 1598.9 2311.57 1599.49C2310.99 1600.08 2310.67 1600.72 2310.61 1601.4C2310.54 1602.08 2310.67 1602.76 2310.99 1603.42C2311.31 1604.09 2311.76 1604.71 2312.33 1605.27C2312.91 1605.83 2313.53 1606.26 2314.21 1606.56C2314.88 1606.86 2315.56 1606.97 2316.23 1606.88C2316.91 1606.79 2317.53 1606.45 2318.11 1605.86ZM2324.91 1600.91L2316.27 1592.5L2317.57 1591.17L2326.2 1599.58L2324.91 1600.91ZM2315.49 1590.42C2315.24 1590.68 2314.93 1590.82 2314.58 1590.84C2314.22 1590.85 2313.92 1590.73 2313.67 1590.49C2313.42 1590.25 2313.3 1589.95 2313.3 1589.6C2313.31 1589.24 2313.44 1588.93 2313.69 1588.67C2313.94 1588.41 2314.25 1588.28 2314.6 1588.27C2314.96 1588.25 2315.26 1588.36 2315.51 1588.6C2315.76 1588.84 2315.88 1589.14 2315.87 1589.5C2315.87 1589.86 2315.74 1590.17 2315.49 1590.42ZM2324.66 1590.77L2329.86 1595.83L2328.57 1597.15L2319.93 1588.74L2321.18 1587.46L2322.53 1588.78L2322.64 1588.66C2322.4 1588.03 2322.34 1587.38 2322.48 1586.71C2322.61 1586.04 2323 1585.37 2323.63 1584.72C2324.2 1584.14 2324.82 1583.74 2325.49 1583.54C2326.15 1583.33 2326.84 1583.34 2327.56 1583.57C2328.28 1583.79 2329 1584.26 2329.74 1584.98L2335.22 1590.32L2333.93 1591.65L2328.54 1586.39C2327.86 1585.73 2327.16 1585.39 2326.44 1585.37C2325.71 1585.35 2325.05 1585.65 2324.45 1586.27C2324.04 1586.69 2323.76 1587.16 2323.62 1587.67C2323.48 1588.18 2323.5 1588.7 2323.66 1589.23C2323.83 1589.77 2324.16 1590.28 2324.66 1590.77ZM2337.76 1587.72L2326.25 1576.5L2330.17 1572.48C2330.95 1571.68 2331.73 1571.15 2332.52 1570.9C2333.3 1570.64 2334.05 1570.62 2334.76 1570.81C2335.47 1571.01 2336.1 1571.38 2336.67 1571.93C2337.16 1572.41 2337.48 1572.89 2337.63 1573.38C2337.79 1573.87 2337.82 1574.35 2337.73 1574.81C2337.64 1575.28 2337.49 1575.72 2337.25 1576.14L2337.37 1576.25C2337.73 1575.91 2338.2 1575.68 2338.77 1575.54C2339.34 1575.41 2339.96 1575.42 2340.61 1575.59C2341.26 1575.76 2341.89 1576.14 2342.5 1576.73C2343.08 1577.3 2343.47 1577.93 2343.67 1578.64C2343.88 1579.35 2343.84 1580.12 2343.56 1580.95C2343.28 1581.78 2342.7 1582.65 2341.81 1583.56L2337.76 1587.72ZM2337.88 1585.12L2340.58 1582.35C2341.46 1581.44 2341.92 1580.62 2341.94 1579.9C2341.96 1579.17 2341.71 1578.55 2341.21 1578.06C2340.82 1577.68 2340.36 1577.43 2339.84 1577.31C2339.31 1577.18 2338.77 1577.2 2338.21 1577.38C2337.65 1577.55 2337.13 1577.88 2336.64 1578.39L2333.88 1581.22L2337.88 1585.12ZM2332.67 1580.04L2335.18 1577.45C2335.59 1577.03 2335.88 1576.57 2336.04 1576.07C2336.21 1575.57 2336.24 1575.08 2336.14 1574.59C2336.03 1574.09 2335.78 1573.65 2335.37 1573.25C2334.87 1572.76 2334.27 1572.52 2333.57 1572.53C2332.87 1572.53 2332.15 1572.92 2331.41 1573.68L2328.84 1576.31L2332.67 1580.04ZM2345.29 1562.72C2344.65 1562.23 2343.94 1562.07 2343.16 1562.24C2342.38 1562.42 2341.65 1562.85 2340.97 1563.55C2340.47 1564.06 2340.12 1564.58 2339.92 1565.13C2339.71 1565.67 2339.65 1566.18 2339.73 1566.68C2339.81 1567.17 2340.04 1567.59 2340.41 1567.95C2340.71 1568.25 2341.05 1568.43 2341.41 1568.5C2341.78 1568.57 2342.14 1568.55 2342.52 1568.46C2342.89 1568.37 2343.24 1568.24 2343.58 1568.08C2343.92 1567.91 2344.22 1567.75 2344.49 1567.59L2345.94 1566.72C2346.31 1566.5 2346.74 1566.27 2347.24 1566.04C2347.74 1565.81 2348.28 1565.64 2348.84 1565.53C2349.41 1565.42 2349.99 1565.44 2350.58 1565.58C2351.16 1565.72 2351.72 1566.05 2352.26 1566.58C2352.89 1567.18 2353.29 1567.89 2353.47 1568.71C2353.66 1569.52 2353.6 1570.38 2353.29 1571.29C2352.99 1572.2 2352.4 1573.09 2351.54 1573.98C2350.74 1574.8 2349.91 1575.38 2349.05 1575.73C2348.2 1576.07 2347.37 1576.18 2346.56 1576.06C2345.75 1575.94 2345.01 1575.59 2344.34 1575.02L2345.74 1573.59C2346.21 1573.97 2346.71 1574.18 2347.25 1574.2C2347.78 1574.21 2348.31 1574.09 2348.83 1573.83C2349.35 1573.57 2349.84 1573.21 2350.28 1572.75C2350.8 1572.22 2351.18 1571.66 2351.42 1571.06C2351.66 1570.47 2351.74 1569.9 2351.67 1569.35C2351.59 1568.79 2351.35 1568.31 2350.93 1567.9C2350.55 1567.53 2350.13 1567.33 2349.68 1567.31C2349.23 1567.29 2348.77 1567.38 2348.28 1567.59C2347.79 1567.79 2347.29 1568.04 2346.78 1568.33L2345 1569.36C2343.86 1570 2342.8 1570.36 2341.81 1570.41C2340.82 1570.47 2339.94 1570.12 2339.16 1569.37C2338.52 1568.74 2338.12 1568.02 2337.98 1567.2C2337.84 1566.38 2337.93 1565.54 2338.24 1564.69C2338.55 1563.83 2339.06 1563.03 2339.78 1562.3C2340.5 1561.56 2341.28 1561.03 2342.1 1560.71C2342.93 1560.39 2343.73 1560.28 2344.52 1560.39C2345.31 1560.49 2346 1560.82 2346.6 1561.37L2345.29 1562.72ZM2358.73 1550.36L2357.37 1551.75C2356.89 1551.44 2356.4 1551.24 2355.9 1551.15C2355.4 1551.06 2354.9 1551.06 2354.41 1551.15C2353.92 1551.23 2353.45 1551.4 2353 1551.65C2352.55 1551.9 2352.14 1552.22 2351.77 1552.6C2351.09 1553.3 2350.65 1554.1 2350.45 1555.01C2350.26 1555.91 2350.34 1556.87 2350.7 1557.87C2351.07 1558.87 2351.75 1559.85 2352.74 1560.82C2353.74 1561.79 2354.74 1562.45 2355.75 1562.79C2356.76 1563.12 2357.71 1563.18 2358.61 1562.96C2359.52 1562.74 2360.31 1562.28 2360.99 1561.58C2361.36 1561.2 2361.67 1560.78 2361.9 1560.32C2362.14 1559.87 2362.3 1559.4 2362.37 1558.91C2362.45 1558.41 2362.43 1557.91 2362.33 1557.42C2362.22 1556.91 2362.01 1556.42 2361.69 1555.95L2363.05 1554.56C2363.54 1555.24 2363.88 1555.94 2364.07 1556.67C2364.26 1557.4 2364.32 1558.13 2364.25 1558.86C2364.17 1559.59 2363.96 1560.29 2363.63 1560.97C2363.3 1561.64 2362.86 1562.27 2362.29 1562.85C2361.34 1563.83 2360.24 1564.47 2359.02 1564.77C2357.8 1565.07 2356.53 1565 2355.22 1564.58C2353.91 1564.16 2352.64 1563.35 2351.43 1562.17C2350.21 1560.99 2349.38 1559.75 2348.92 1558.45C2348.46 1557.15 2348.37 1555.88 2348.63 1554.65C2348.9 1553.42 2349.51 1552.31 2350.47 1551.33C2351.03 1550.75 2351.65 1550.28 2352.31 1549.94C2352.98 1549.59 2353.68 1549.37 2354.41 1549.27C2355.13 1549.18 2355.86 1549.21 2356.59 1549.39C2357.33 1549.56 2358.04 1549.88 2358.73 1550.36Z" fill="#383642"/>
<path d="M2239.93 1407.72C2234.9 1645.97 2156.88 1828.02 2006.71 1949.66C1843.96 2081.38 1598.99 2145.13 1259.23 2145.13C919.463 2145.13 675.336 2080.54 511.745 1949.66C361.577 1828.86 281.879 1645.13 278.523 1407.72C276.846 1375 278.523 1339.77 281.04 1304.53C281.04 1299.5 282.718 1294.46 282.718 1289.43C284.396 1272.65 286.913 1255.03 287.752 1239.93C291.946 1205.54 297.819 1172.82 304.53 1142.62C364.933 854.866 519.295 656.879 765.101 550.336C765.101 550.336 737.416 545.302 685.403 562.919C656.879 355.705 545.302 218.121 492.45 161.913C517.617 161.913 555.369 166.107 605.705 181.208C691.275 208.054 828.02 276.007 1005.03 443.792C954.698 453.859 925.336 498.322 925.336 498.322C957.215 490.772 988.255 484.06 1020.97 479.027C1055.37 473.993 1090.6 468.96 1125.84 466.443C1168.62 462.248 1213.93 461.409 1260.07 461.409C1306.21 461.409 1350.67 463.087 1394.3 466.443C1429.53 468.96 1464.77 473.993 1499.16 479.027C1531.88 484.06 1564.6 490.772 1594.8 498.322C1594.8 498.322 1565.44 453.859 1515.1 443.792C1690.44 276.007 1828.02 208.054 1914.43 181.208C1963.93 166.107 2001.68 161.913 2027.68 161.913C1973.15 218.96 1863.26 354.866 1835.57 563.758C1783.56 546.141 1755.87 551.174 1755.87 551.174C2001.68 656.879 2156.04 855.705 2216.44 1143.46C2223.15 1175.34 2229.03 1206.38 2233.22 1240.77C2235.74 1257.55 2237.42 1273.49 2238.26 1290.27C2238.26 1295.3 2239.93 1300.34 2239.93 1305.37C2239.93 1339.77 2240.77 1375 2239.93 1407.72Z" fill="#79777F"/>
<path d="M2017.62 187.919C2017.62 187.919 1745.81 223.154 1559.56 400.168L1677.85 282.718L1845.64 187.919L2041.11 137.584L2017.62 187.919Z" fill="#8F8C99"/>
<path d="M1123.32 445.47L1120.81 682.886C1120.81 682.886 1033.56 625 1017.62 458.054C1052.01 453.02 1087.25 447.987 1123.32 445.47ZM454.698 1240.77C454.698 1240.77 362.416 1236.58 267.617 1235.74C271.812 1201.34 277.685 1168.62 284.396 1137.58C332.215 1149.33 400.168 1175.34 454.698 1240.77ZM454.698 1354.87C454.698 1354.87 356.544 1391.78 259.228 1409.4C257.55 1375 259.228 1339.77 261.745 1303.69C261.745 1298.66 263.423 1293.62 263.423 1286.91C325.503 1284.4 405.201 1294.46 454.698 1354.87ZM1394.3 445.47L1396.81 682.886C1396.81 682.886 1484.06 625 1500 458.054C1465.6 453.02 1430.37 447.987 1394.3 445.47ZM1264.26 1019.3C1264.26 1019.3 1169.46 689.597 1182.05 446.309C1182.05 446.309 1239.09 416.946 1259.23 453.859C1279.36 416.946 1336.41 446.309 1336.41 446.309C1348.15 689.597 1264.26 1019.3 1264.26 1019.3ZM2062.92 1240.77C2062.92 1240.77 2155.2 1236.58 2250 1235.74C2245.81 1201.34 2239.93 1168.62 2233.22 1137.58C2184.56 1149.33 2117.45 1175.34 2062.92 1240.77ZM2062.92 1354.87C2062.92 1354.87 2161.07 1391.78 2258.39 1409.4C2260.07 1375 2258.39 1339.77 2255.87 1303.69C2255.87 1298.66 2254.19 1293.62 2254.19 1286.91C2192.11 1284.4 2112.42 1294.46 2062.92 1354.87Z" fill="#423F4C"/>
<path d="M639.262 516.778C643.456 536.074 646.812 556.208 649.329 576.342C614.933 593.121 574.664 616.611 529.362 656.04C521.812 662.752 514.262 670.302 506.711 676.174C462.248 671.98 420.302 654.362 391.778 629.195C438.758 583.893 486.577 553.691 539.429 536.074L568.792 526.007L548.658 503.356C524.329 476.51 511.745 446.309 508.389 411.074C541.107 411.074 583.054 415.268 614.094 430.369L629.195 475.671L639.262 516.778Z" fill="#79777F"/>
<path d="M450.503 170.302C478.188 197.148 543.624 268.456 593.121 378.356C555.369 368.289 513.423 366.611 484.899 369.127L467.282 370.805V388.423C465.604 432.886 477.349 470.638 500 504.195C447.148 526.846 396.812 562.081 348.154 611.577L335.57 625L347.315 639.262C376.678 673.658 421.98 698.825 470.638 708.893L468.121 711.409C394.295 797.819 335.57 899.329 297.819 1017.62C288.591 949.664 277.685 845.638 280.201 730.705C281.879 555.369 312.919 317.114 450.503 170.302Z" fill="#423F4C"/>
<path d="M1879.19 516.778C1875 536.074 1871.64 556.208 1869.13 576.342C1903.52 593.121 1943.79 616.611 1989.09 656.04C1996.64 662.752 2004.19 670.302 2011.74 676.174C2055.37 671.98 2097.32 654.362 2126.68 629.195C2079.7 583.893 2031.88 553.691 1979.03 536.074L1949.66 526.007L1969.8 503.356C1994.13 476.51 2006.71 446.309 2010.07 411.074C1977.35 411.074 1935.4 415.268 1904.36 430.369L1889.26 475.671L1879.19 516.778Z" fill="#79777F"/>
<path d="M2067.11 170.302C2039.43 197.148 1973.99 268.456 1924.5 378.356C1962.25 368.289 2004.19 366.611 2032.72 369.127L2050.34 370.805V388.423C2052.01 432.886 2040.27 470.638 2017.62 504.195C2070.47 526.846 2120.81 562.081 2169.46 611.577L2182.05 624.161L2170.3 638.423C2140.94 672.819 2095.64 697.987 2046.98 708.054L2049.5 710.57C2125 795.302 2183.72 897.651 2222.32 1015.94C2231.54 947.987 2242.45 843.96 2239.93 729.027C2235.74 555.369 2203.02 317.114 2067.11 170.302Z" fill="#423F4C"/>
<path d="M360.738 629.195L441.275 676.174L499.161 708.893C372.483 843.121 305.369 1057.05 305.369 1057.05L277.685 1017.62C299.497 853.188 424.497 728.188 424.497 728.188C349.832 713.087 302.013 629.195 302.013 629.195C336.409 549.497 466.443 494.966 466.443 494.966C433.725 437.919 447.148 347.315 447.148 347.315C447.148 347.315 507.55 338.087 552.852 347.315C510.067 272.651 430.369 179.53 430.369 179.53L454.698 159.396L530.201 226.51L595.638 352.349H604.866L622.483 411.913C560.403 382.55 488.255 394.295 488.255 394.295C481.544 452.181 527.685 519.295 527.685 519.295C459.732 526.846 360.738 629.195 360.738 629.195Z" fill="#2B293A"/>
<path d="M578.02 412.752C578.02 412.752 612.416 502.517 617.45 559.564C617.45 559.564 494.127 625 460.57 675.336L515.101 690.436L667.785 582.215L630.872 411.913H578.02V412.752Z" fill="#595563"/>
<path d="M500 187.919C500 187.919 771.812 223.154 958.054 400.168L840.604 282.718L672.819 187.919L477.349 137.584L500 187.919Z" fill="#8F8C99"/>
<path d="M2156.88 629.195L2076.34 676.174L2018.46 708.893C2145.97 843.96 2213.93 1057.05 2213.93 1057.05L2241.61 1017.62C2219.8 853.188 2094.8 728.188 2094.8 728.188C2169.46 713.087 2217.28 629.195 2217.28 629.195C2182.89 549.497 2052.85 494.966 2052.85 494.966C2085.57 437.919 2072.15 347.315 2072.15 347.315C2072.15 347.315 2011.74 338.087 1966.44 347.315C2009.23 272.651 2088.93 179.53 2088.93 179.53L2064.6 159.396L1989.09 226.51L1922.82 352.349H1913.59L1895.97 411.913C1956.38 382.55 2028.52 394.295 2028.52 394.295C2035.23 452.181 1989.09 519.295 1989.09 519.295C2057.89 526.846 2156.88 629.195 2156.88 629.195Z" fill="#2B293A"/>
<path d="M1939.6 412.752C1939.6 412.752 1905.2 502.517 1900.17 559.564C1900.17 559.564 2023.49 625 2057.05 675.336L2002.52 690.436L1850.67 582.215L1887.58 411.913H1939.6V412.752Z" fill="#595563"/>
<path d="M2274.33 1300.34C2274.33 1293.62 2272.65 1288.59 2272.65 1283.56C2270.97 1265.94 2268.46 1249.16 2267.62 1233.22C2262.58 1198.83 2257.55 1165.27 2250.84 1133.39C2248.32 1123.32 2245.81 1113.25 2244.13 1103.19C2249.16 1076.34 2278.52 917.785 2276.01 732.382C2274.33 612.416 2260.91 505.034 2234.06 411.913C2201.34 294.463 2149.33 201.342 2079.7 132.55L2075.5 128.356L2070.47 126.678C2061.24 124.161 1839.77 66.2751 1465.6 434.564C1441.28 432.047 1417.79 427.852 1393.46 427.013C1348.99 422.819 1303.69 421.98 1256.71 421.98C1209.73 421.98 1164.43 423.658 1119.97 427.013C1095.64 429.53 1072.15 432.047 1047.82 434.564C672.819 66.2751 452.181 124.161 442.953 126.678L437.919 128.356L433.725 132.55C364.094 200.503 312.919 294.463 279.362 411.913C254.195 505.034 239.933 612.416 237.416 732.382C234.899 917.785 264.262 1077.18 269.295 1103.19C266.778 1113.25 264.262 1123.32 262.584 1133.39C255.872 1165.27 250 1198.83 245.805 1233.22C243.289 1250 241.611 1267.62 240.772 1283.56C240.772 1288.59 239.094 1293.62 239.094 1300.34C236.577 1337.25 236.577 1373.32 236.577 1407.72C241.611 1657.72 324.664 1849.83 484.06 1977.35C573.826 2049.5 689.597 2104.03 829.698 2137.58C950.503 2166.95 1093.96 2182.05 1255.03 2182.05C1416.11 2182.05 1559.56 2166.95 1680.37 2137.58C1819.63 2103.19 1935.4 2050.34 2026.01 1977.35C2185.4 1848.15 2268.46 1656.88 2273.49 1407.72C2277.68 1373.32 2276.85 1338.09 2274.33 1300.34ZM2067.11 170.302C2204.7 315.436 2236.58 554.53 2239.09 730.705C2240.77 845.638 2229.87 948.825 2221.48 1017.62C2182.05 899.329 2125.84 796.98 2048.66 712.248L2046.14 709.731C2095.64 699.664 2140.94 674.497 2169.46 640.101L2181.21 625.839L2168.62 613.255C2120.81 562.919 2071.31 527.685 2016.78 505.872C2039.43 471.476 2051.17 432.886 2049.5 390.101V372.483L2031.88 370.805C2002.52 368.289 1961.41 370.805 1923.66 380.034C1972.32 269.295 2039.43 197.987 2067.11 170.302ZM1978.19 535.235C2030.2 552.852 2078.86 583.054 2125.84 628.356C2096.48 655.201 2055.37 671.141 2010.91 675.336C2003.36 667.785 1995.81 661.074 1988.26 655.201C1941.28 617.45 1901.01 592.282 1868.29 575.503C1870.81 555.369 1875 535.235 1878.36 515.94L1888.42 473.993C1893.46 457.215 1897.65 442.114 1903.52 428.691C1936.24 414.429 1978.19 409.396 2009.23 409.396C2006.71 444.631 1992.45 474.832 1968.96 501.678L1948.83 524.329L1978.19 535.235ZM279.362 732.382C281.879 555.369 313.758 317.114 451.342 171.98C479.027 198.825 544.463 270.134 593.96 380.034C556.208 369.966 514.262 368.289 485.738 370.805L468.121 372.483V390.101C466.443 434.564 478.188 472.315 500.839 505.872C447.987 528.523 397.651 563.758 348.993 613.255L335.57 626.678L347.315 640.94C376.678 675.336 421.98 700.503 470.638 710.57L468.121 713.087C394.295 797.819 335.57 899.329 297.819 1017.62C287.752 949.664 277.685 845.638 279.362 732.382ZM546.98 502.517C522.651 475.671 510.067 445.47 506.711 410.235C539.43 410.235 581.376 414.429 612.416 429.53L627.517 474.832L637.584 516.778C641.779 536.074 645.134 556.208 647.651 576.342C613.255 593.121 572.987 616.611 527.685 656.04C520.134 662.752 512.584 670.302 505.034 676.174C460.57 671.98 419.463 654.362 390.101 629.195C437.081 583.893 484.899 553.691 537.752 536.074L567.114 526.007L546.98 502.517ZM2239.93 1407.72C2234.9 1645.97 2156.88 1828.02 2006.71 1949.66C1842.28 2081.38 1598.99 2145.13 1259.23 2145.13C919.463 2145.13 675.336 2080.54 511.745 1949.66C361.577 1828.86 281.879 1645.13 278.523 1407.72C276.846 1375 278.523 1339.77 281.04 1304.53C281.04 1299.5 282.718 1294.46 282.718 1289.43C284.396 1272.65 286.913 1255.03 287.752 1239.93C291.946 1205.54 297.819 1172.82 304.53 1142.62C364.933 854.866 519.295 656.879 765.101 550.336C765.101 550.336 737.416 545.302 685.403 562.919C656.879 355.705 546.98 218.121 492.45 161.913C517.617 161.913 555.369 166.107 605.705 181.208C691.275 208.054 828.02 276.007 1005.03 443.792C954.698 453.859 925.336 498.322 925.336 498.322C957.215 490.772 988.255 484.06 1020.97 479.027C1055.37 473.993 1090.6 468.96 1125.84 466.443C1168.62 462.248 1213.93 461.409 1260.07 461.409C1306.21 461.409 1350.67 463.087 1394.3 466.443C1429.53 468.96 1464.77 473.993 1499.16 479.027C1531.88 484.06 1564.6 490.772 1594.8 498.322C1594.8 498.322 1565.44 453.859 1515.1 443.792C1690.44 276.007 1828.02 208.054 1914.43 181.208C1963.93 166.107 2001.68 161.913 2027.68 161.913C1973.15 218.96 1863.26 354.866 1835.57 563.758C1783.56 546.141 1755.87 551.174 1755.87 551.174C2001.68 656.879 2156.04 855.705 2216.44 1143.46C2223.15 1173.66 2229.03 1206.38 2233.22 1240.77C2235.74 1257.55 2237.42 1273.49 2238.26 1290.27C2238.26 1295.3 2239.93 1300.34 2239.93 1305.37C2239.93 1339.77 2240.77 1375 2239.93 1407.72Z" fill="black"/>
<path d="M2042.79 1771.81C2036.07 1813.76 1937.08 1864.09 1880.03 1859.06C1862.42 1857.38 1875.84 1827.18 1886.74 1822.15C1982.38 1769.3 2011.74 1707.21 1971.48 1716.44C1929.53 1725.67 1808.72 1618.29 1880.87 1639.26C1953.02 1660.23 2035.23 1531.88 2010.91 1551.17C1986.58 1570.47 1833.89 1538.59 1738.26 1483.22C1667.79 1442.95 1520.13 1435.4 1447.99 1433.72C1437.92 1374.16 1416.11 1330.54 1357.38 1308.72C1359.9 1269.3 1369.97 1245.81 1369.97 1245.81C1334.73 1255.87 1309.56 1273.49 1291.95 1296.14H1285.23C1281.04 1246.64 1268.46 1196.31 1225.67 1161.91C1225.67 1161.91 1206.38 1219.8 1191.28 1301.17C1111.58 1317.95 1085.57 1366.61 1073.83 1433.72C996.644 1436.24 871.644 1446.31 808.725 1483.22C713.926 1538.59 560.403 1570.47 536.074 1551.17C511.745 1531.88 593.96 1661.07 666.107 1639.26C738.255 1617.45 616.611 1726.51 575.503 1716.44C533.557 1707.21 563.758 1769.3 660.235 1822.15C670.302 1828.86 684.564 1857.38 666.946 1859.06C609.899 1864.09 511.745 1813.76 504.195 1771.81C497.483 1732.38 506.711 2132.55 1161.91 2148.49H1348.15C1364.93 2148.49 1380.87 2148.49 1397.65 2146.81C2040.27 2129.19 2049.5 1732.38 2042.79 1771.81Z" fill="#FEFEFE"/>
<path d="M1377.52 1748.32C1327.18 1728.19 1279.36 1680.37 1279.36 1680.37L1284.4 1632.55L1262.58 1598.15L1240.77 1632.55L1245.81 1680.37C1245.81 1680.37 1193.79 1720.64 1143.46 1743.29C1103.19 1760.91 1028.52 1710.57 1028.52 1710.57C1028.52 1710.57 1095.64 1788.59 1160.23 1773.49C1204.7 1763.42 1263.42 1721.48 1263.42 1721.48C1263.42 1721.48 1326.34 1765.94 1366.61 1776.01C1431.21 1792.79 1500.84 1715.6 1500.84 1715.6C1500.84 1715.6 1417.79 1765.1 1377.52 1748.32Z" fill="black"/>
<path d="M1307.05 1562.92C1307.05 1594.8 1294.46 1640.94 1262.58 1640.94C1230.7 1640.94 1218.12 1593.96 1218.12 1562.92C1218.12 1531.04 1238.25 1505.87 1262.58 1505.87C1286.91 1505.03 1307.05 1530.2 1307.05 1562.92Z" fill="black"/>
<path d="M1305.37 1580.54C1310.4 1563.76 1340.6 1541.11 1352.35 1536.07C1350.67 1509.23 1291.95 1496.64 1281.88 1529.36C1271.81 1564.6 1287.75 1579.7 1305.37 1580.54ZM1219.8 1580.54C1214.77 1563.76 1184.56 1541.11 1172.82 1536.07C1174.5 1509.23 1233.22 1496.64 1243.29 1529.36C1252.52 1564.6 1237.42 1579.7 1219.8 1580.54Z" fill="#643747"/>
<path d="M1324.66 1473.15C1307.89 1473.15 1280.2 1483.22 1262.58 1483.22C1243.29 1483.22 1217.28 1473.15 1200.5 1473.15C1186.24 1473.15 1140.1 1484.9 1157.72 1518.46C1162.75 1528.52 1167.79 1533.56 1174.5 1536.07C1184.56 1531.04 1216.44 1526.01 1234.9 1551.17C1229.87 1556.21 1222.32 1568.79 1220.64 1580.54C1230.7 1603.19 1243.29 1620.81 1262.58 1622.48C1281.88 1622.48 1295.3 1604.87 1305.37 1580.54C1302.85 1568.79 1296.14 1556.21 1291.11 1551.17C1310.4 1526.01 1341.44 1531.04 1351.51 1536.07C1358.22 1533.56 1361.58 1528.52 1368.29 1518.46C1385.07 1484.9 1337.25 1473.15 1324.66 1473.15Z" fill="#F38181"/>
<path d="M1262.58 1545.3C1260.07 1545.3 1257.55 1579.7 1257.55 1620.81C1259.23 1620.81 1260.07 1620.81 1262.58 1622.48C1265.1 1622.48 1266.78 1622.48 1267.62 1620.81C1267.62 1579.7 1265.1 1545.3 1262.58 1545.3Z" fill="#DD6B6B"/>
<path d="M636.745 1077.18C636.745 1077.18 639.262 1049.5 625 1017.62C607.383 979.866 580.537 960.57 580.537 960.57C580.537 960.57 985.738 1020.13 1032.72 1114.93C1079.7 1209.73 1067.95 1250 1067.95 1250C1067.95 1250 1031.04 1090.6 853.188 1074.66C674.497 1058.72 636.745 1077.18 636.745 1077.18Z" fill="#595563"/>
<path d="M1059.56 1354.87L1039.43 1350.67L1041.95 1340.6C1041.95 1338.93 1077.18 1166.11 1015.1 1104.87C940.436 1030.2 687.919 970.638 580.537 965.604H575.503C571.309 965.604 568.792 963.926 566.275 961.409L559.564 953.859C555.369 949.664 559.564 943.792 564.597 943.792L581.376 945.47C693.792 952.181 949.664 1010.91 1029.36 1090.6C1098.99 1160.23 1063.76 1338.09 1062.08 1345.64L1059.56 1354.87Z" fill="black"/>
<path d="M1031.04 1309.56C1028.52 1316.28 932.047 1380.03 822.148 1380.03C727.349 1380.03 651.846 1341.44 617.45 1274.33C587.248 1213.93 594.799 1140.94 640.101 1079.7C646.812 1072.15 676.175 1066.28 715.604 1066.28C731.544 1066.28 748.322 1067.95 765.94 1067.95C876.678 1077.18 1001.68 1111.58 1029.36 1166.11C1046.98 1202.18 1061.24 1248.32 1031.04 1309.56Z" fill="url(#paint1_linear_8_9)"/>
<path opacity="0.3" d="M839.765 1358.22C836.409 1358.22 833.054 1343.12 832.215 1323.83C831.376 1304.53 831.376 1287.75 834.731 1287.75C838.087 1287.75 841.443 1302.85 842.282 1322.15C843.96 1340.6 843.121 1358.22 839.765 1358.22Z" fill="url(#paint2_linear_8_9)"/>
<path opacity="0.3" d="M861.577 1354.87C858.221 1355.7 854.027 1340.6 849.832 1322.15C846.476 1302.85 845.637 1286.91 848.993 1286.07C852.349 1285.23 856.544 1300.34 860.738 1318.79C863.255 1338.09 864.933 1354.87 861.577 1354.87Z" fill="url(#paint3_linear_8_9)"/>
<path opacity="0.3" d="M881.711 1350.67C878.356 1351.51 872.483 1338.09 866.611 1319.63C861.577 1301.17 858.221 1284.4 861.577 1283.56C864.933 1282.72 870.805 1296.14 876.678 1314.6C882.55 1333.89 885.067 1349.83 881.711 1350.67Z" fill="url(#paint4_linear_8_9)"/>
<path opacity="0.3" d="M901.845 1343.12C898.49 1343.96 890.939 1331.38 883.389 1312.92C875.839 1294.46 871.644 1278.52 874.161 1277.68C877.517 1276.85 885.067 1289.43 892.617 1307.89C901.007 1326.34 905.201 1342.28 901.845 1343.12Z" fill="url(#paint5_linear_8_9)"/>
<path opacity="0.3" d="M921.141 1334.73C917.785 1335.57 909.396 1323.83 901.007 1307.05C891.779 1290.27 885.906 1275.17 888.423 1272.65C891.779 1271.81 900.168 1283.56 909.396 1300.34C918.624 1317.11 924.497 1332.21 921.141 1334.73Z" fill="url(#paint6_linear_8_9)"/>
<path opacity="0.3" d="M939.597 1322.99C937.08 1325.5 927.013 1313.76 916.107 1296.98C905.201 1281.04 896.812 1265.94 900.168 1265.1C902.685 1262.58 912.752 1274.33 923.658 1291.11C933.725 1307.05 942.114 1320.47 939.597 1322.99Z" fill="url(#paint7_linear_8_9)"/>
<path opacity="0.3" d="M956.376 1310.4C953.859 1312.92 942.114 1302.01 930.369 1287.75C917.785 1272.65 909.396 1259.23 911.074 1256.71C913.591 1254.19 925.336 1264.26 937.92 1279.36C949.665 1293.62 958.893 1307.89 956.376 1310.4Z" fill="url(#paint8_linear_8_9)"/>
<path opacity="0.3" d="M971.477 1295.3C968.96 1297.82 957.215 1288.59 942.953 1275.17C928.691 1262.58 918.624 1249.16 920.302 1246.64C922.819 1244.13 934.564 1253.36 948.826 1266.78C963.087 1280.2 973.154 1292.79 971.477 1295.3Z" fill="url(#paint9_linear_8_9)"/>
<path opacity="0.3" d="M984.899 1279.36C982.383 1281.88 969.799 1274.33 954.698 1262.58C939.597 1250.84 927.013 1239.09 928.691 1236.58C930.369 1234.06 943.792 1241.61 958.893 1253.36C975.671 1265.1 987.416 1276.85 984.899 1279.36Z" fill="url(#paint10_linear_8_9)"/>
<path opacity="0.3" d="M998.322 1261.74C995.805 1265.1 983.221 1258.39 966.443 1247.48C950.503 1238.26 936.242 1227.35 938.758 1223.99C941.275 1220.64 953.859 1227.35 970.638 1238.26C986.577 1249.16 999.161 1258.39 998.322 1261.74Z" fill="url(#paint11_linear_8_9)"/>
<path opacity="0.3" d="M1007.55 1242.45C1006.71 1245.81 991.611 1239.93 974.832 1231.54C958.054 1223.15 942.953 1214.77 944.631 1211.41C947.148 1208.05 960.57 1213.93 977.349 1220.64C994.966 1230.7 1008.39 1240.77 1007.55 1242.45Z" fill="url(#paint12_linear_8_9)"/>
<path opacity="0.3" d="M1015.94 1223.15C1015.1 1226.51 1000 1223.15 981.544 1216.44C963.087 1209.73 948.825 1202.18 949.664 1199.66C950.503 1196.31 965.604 1199.66 984.06 1206.38C1002.52 1213.09 1017.62 1220.64 1015.94 1223.15Z" fill="url(#paint13_linear_8_9)"/>
<path opacity="0.3" d="M1021.81 1203.02C1020.97 1206.38 1005.87 1203.86 987.416 1199.66C968.121 1195.47 953.02 1188.76 953.02 1187.08C953.859 1183.72 968.96 1186.24 987.416 1190.44C1006.71 1194.63 1022.65 1199.66 1021.81 1203.02Z" fill="url(#paint14_linear_8_9)"/>
<path opacity="0.3" d="M1026.01 1182.05C1026.01 1185.4 1010.91 1185.4 991.611 1182.05C972.315 1178.69 956.376 1175.34 956.376 1172.82C956.376 1170.3 972.315 1169.46 991.611 1171.98C1010.07 1174.5 1026.01 1178.69 1026.01 1182.05Z" fill="url(#paint15_linear_8_9)"/>
<path opacity="0.3" d="M1026.85 1160.23C1026.85 1163.59 1011.74 1164.43 992.45 1164.43C973.154 1164.43 956.376 1161.07 957.215 1157.72C957.215 1154.36 972.315 1153.52 991.611 1153.52C1010.91 1155.2 1027.68 1156.88 1026.85 1160.23Z" fill="url(#paint16_linear_8_9)"/>
<path opacity="0.3" d="M632.55 1088.09C633.389 1084.73 648.49 1088.09 666.946 1094.8C685.403 1101.51 699.665 1109.06 698.826 1111.58C697.987 1114.93 682.886 1111.58 664.43 1104.87C646.812 1098.15 631.712 1090.6 632.55 1088.09Z" fill="url(#paint17_linear_8_9)"/>
<path opacity="0.3" d="M625.839 1108.22C626.678 1104.87 641.778 1107.38 660.235 1111.58C679.53 1115.77 694.631 1122.48 694.631 1124.16C693.792 1127.52 678.691 1125 660.235 1120.81C640.94 1116.61 625.839 1111.58 625.839 1108.22Z" fill="url(#paint18_linear_8_9)"/>
<path opacity="0.3" d="M623.322 1129.19C623.322 1125.84 638.423 1125.84 657.718 1129.19C677.013 1131.71 692.953 1135.91 692.953 1138.42C692.953 1141.78 677.013 1141.78 657.718 1139.26C639.262 1135.91 621.644 1132.55 623.322 1129.19Z" fill="url(#paint19_linear_8_9)"/>
<path opacity="0.3" d="M620.805 1149.33C620.805 1145.97 635.906 1145.13 655.201 1145.13C674.497 1145.13 691.275 1148.49 690.436 1151.85C690.436 1155.2 675.336 1156.04 656.04 1156.04C637.584 1156.04 620.805 1152.68 620.805 1149.33Z" fill="url(#paint20_linear_8_9)"/>
<path opacity="0.3" d="M621.644 1171.14C621.644 1167.79 636.745 1164.43 656.04 1163.59C675.336 1162.75 692.114 1162.75 692.114 1166.11C692.114 1169.46 677.013 1172.82 657.718 1173.66C639.262 1175.34 621.644 1174.5 621.644 1171.14Z" fill="url(#paint21_linear_8_9)"/>
<path opacity="0.3" d="M624.161 1192.11C623.322 1188.76 638.423 1184.56 656.879 1180.37C676.174 1177.01 692.114 1176.17 692.953 1179.53C693.792 1182.89 678.691 1187.08 660.235 1191.28C642.617 1194.63 625 1195.47 624.161 1192.11Z" fill="url(#paint22_linear_8_9)"/>
<path opacity="0.3" d="M629.194 1213.09C628.356 1209.73 641.778 1203.86 660.235 1197.99C678.691 1192.95 695.47 1189.6 696.309 1192.95C697.147 1196.31 683.725 1202.18 665.268 1208.05C646.812 1213.93 630.872 1215.6 629.194 1213.09Z" fill="url(#paint23_linear_8_9)"/>
<path opacity="0.3" d="M636.745 1233.22C635.906 1229.87 648.49 1222.32 666.946 1214.77C685.403 1207.21 701.342 1203.02 702.181 1205.54C703.02 1208.89 690.436 1216.44 671.98 1223.99C654.362 1232.38 637.584 1236.58 636.745 1233.22Z" fill="url(#paint24_linear_8_9)"/>
<path opacity="0.3" d="M645.134 1252.52C644.295 1249.16 656.04 1240.77 672.819 1232.38C689.597 1223.15 704.698 1217.28 707.215 1219.8C708.054 1223.15 696.309 1231.54 679.53 1240.77C662.752 1250 647.651 1255.87 645.134 1252.52Z" fill="url(#paint25_linear_8_9)"/>
<path opacity="0.3" d="M656.879 1270.13C654.363 1267.62 666.107 1257.55 682.886 1246.64C698.826 1235.74 713.926 1227.35 714.765 1230.7C717.282 1233.22 705.537 1243.29 688.758 1254.19C672.819 1265.1 658.557 1273.49 656.879 1270.13Z" fill="url(#paint26_linear_8_9)"/>
<path opacity="0.3" d="M670.302 1287.75C667.785 1285.23 678.691 1273.49 692.953 1261.74C708.054 1249.16 721.476 1240.77 723.993 1242.45C726.51 1244.13 716.443 1256.71 701.342 1269.3C686.241 1281.04 671.98 1289.43 670.302 1287.75Z" fill="url(#paint27_linear_8_9)"/>
<path opacity="0.3" d="M685.403 1302.85C682.886 1300.34 692.114 1288.59 705.537 1274.33C718.121 1260.07 731.544 1250 734.06 1251.68C736.577 1254.19 727.349 1265.94 713.926 1280.2C699.664 1295.3 687.08 1304.53 685.403 1302.85Z" fill="url(#paint28_linear_8_9)"/>
<path opacity="0.3" d="M701.342 1316.28C698.825 1313.76 706.376 1301.17 718.121 1286.07C729.866 1270.97 741.611 1258.39 744.127 1260.07C746.644 1262.58 739.094 1275.17 727.349 1290.27C714.765 1307.05 703.02 1318.79 701.342 1316.28Z" fill="url(#paint29_linear_8_9)"/>
<path opacity="0.3" d="M718.121 1328.86C714.765 1326.34 721.476 1313.76 732.383 1296.98C741.611 1281.04 752.517 1266.78 755.872 1269.3C759.228 1271.81 752.517 1284.4 741.611 1301.17C730.705 1317.11 721.476 1330.54 718.121 1328.86Z" fill="url(#paint30_linear_8_9)"/>
<path opacity="0.3" d="M737.416 1338.93C734.061 1338.09 739.933 1322.99 748.322 1306.21C756.711 1289.43 765.101 1274.33 768.456 1276.01C771.812 1276.85 765.94 1291.95 759.228 1308.72C749.161 1326.34 739.094 1339.77 737.416 1338.93Z" fill="url(#paint31_linear_8_9)"/>
<path opacity="0.3" d="M756.711 1347.32C753.356 1346.48 756.711 1331.38 763.423 1312.92C770.134 1294.46 777.685 1280.2 780.201 1281.04C783.557 1281.88 780.201 1296.98 773.49 1315.44C767.618 1333.89 760.067 1348.15 756.711 1347.32Z" fill="url(#paint32_linear_8_9)"/>
<path opacity="0.3" d="M776.846 1352.35C773.49 1351.51 776.007 1336.41 780.201 1317.95C784.396 1298.66 791.107 1283.56 792.785 1283.56C796.141 1284.4 793.624 1299.5 789.429 1317.95C785.235 1338.09 780.201 1354.03 776.846 1352.35Z" fill="url(#paint33_linear_8_9)"/>
<path opacity="0.3" d="M798.658 1357.38C795.302 1357.38 795.302 1342.28 798.658 1322.99C801.174 1303.69 805.369 1287.75 807.886 1287.75C811.242 1287.75 811.242 1303.69 808.725 1322.99C804.53 1340.6 800.336 1357.38 798.658 1357.38Z" fill="url(#paint34_linear_8_9)"/>
<path opacity="0.3" d="M818.792 1359.06C815.436 1359.06 814.597 1343.96 814.597 1324.66C814.597 1305.37 817.953 1288.59 821.309 1289.43C824.664 1289.43 825.503 1304.53 825.503 1323.83C824.664 1342.28 822.148 1359.06 818.792 1359.06Z" fill="url(#paint35_linear_8_9)"/>
<path d="M981.544 1175.34C981.544 1155.2 978.188 1135.91 973.154 1117.45C919.463 1090.6 839.765 1072.99 765.94 1067.11C749.161 1067.11 731.544 1065.44 715.604 1065.44H703.02C679.53 1097.32 667.785 1138.42 667.785 1182.89C667.785 1278.52 726.51 1352.35 822.987 1352.35C919.463 1352.35 981.544 1270.97 981.544 1175.34Z" fill="#FFFBDE"/>
<path d="M957.215 1175.34C957.215 1149.33 951.342 1125 941.275 1104.03C890.939 1084.73 826.342 1072.15 765.101 1067.11C754.194 1067.11 744.127 1066.28 733.221 1066.28C705.537 1093.96 689.597 1135.91 689.597 1182.05C689.597 1264.26 739.933 1326.34 821.309 1326.34C902.684 1326.34 957.215 1257.55 957.215 1175.34Z" fill="black"/>
<g opacity="0.85">
<path d="M844.799 1242.45C835.57 1262.58 839.765 1283.56 855.705 1290.27C869.966 1296.98 890.101 1287.75 899.329 1267.62C908.557 1247.48 904.362 1226.51 888.423 1219.8C872.483 1212.25 854.027 1222.32 844.799 1242.45ZM737.416 1181.21C729.866 1190.44 728.188 1204.7 735.738 1211.41C743.288 1218.12 756.711 1215.6 765.101 1206.38C773.49 1197.15 774.329 1182.89 766.778 1176.17C758.389 1169.46 744.966 1171.98 737.416 1181.21Z" fill="white"/>
</g>
<path d="M1061.24 1186.24C1005.87 1056.21 756.712 1044.46 636.745 1057.05C606.544 1093.96 582.215 1161.91 579.698 1207.21C570.47 1364.09 805.369 1432.05 944.631 1385.07C971.477 1375.84 1001.68 1365.77 1031.88 1358.22C1041.11 1369.97 1064.6 1363.26 1063.76 1348.99C1063.76 1329.7 1076.34 1229.03 1061.24 1186.24ZM1021.81 1309.56C1019.3 1316.28 927.014 1376.68 822.148 1376.68C731.544 1376.68 659.396 1339.77 626.678 1276.01C597.315 1218.12 604.866 1148.49 648.49 1090.6C655.201 1083.05 682.886 1078.02 720.638 1078.02C735.738 1078.02 752.517 1079.7 768.456 1079.7C874.161 1088.93 993.289 1121.64 1020.13 1172.82C1036.91 1207.21 1051.17 1250.84 1021.81 1309.56Z" fill="black"/>
<path d="M1645.97 1077.18C1468.12 1093.96 1431.21 1252.52 1431.21 1252.52C1431.21 1252.52 1419.46 1212.25 1466.44 1117.45C1513.42 1022.65 1918.62 963.087 1918.62 963.087C1918.62 963.087 1891.78 982.383 1874.16 1020.13C1859.9 1052.01 1862.42 1079.7 1862.42 1079.7C1862.42 1079.7 1825.5 1061.24 1645.97 1077.18Z" fill="#595563"/>
<path d="M1436.24 1348.99C1434.56 1341.44 1399.33 1163.59 1468.96 1093.96C1548.66 1014.26 1804.53 954.698 1916.95 948.825L1933.72 947.148C1938.76 947.148 1942.95 953.859 1938.76 957.215L1932.05 964.765C1929.53 967.282 1927.01 968.96 1922.82 968.96H1917.79C1810.4 973.993 1557.89 1033.56 1483.22 1108.22C1421.14 1170.3 1456.38 1343.12 1456.38 1343.96L1458.89 1354.03L1438.76 1358.22L1436.24 1348.99Z" fill="black"/>
<path d="M1471.48 1167.79C1499.16 1113.25 1623.32 1078.86 1734.9 1069.63C1751.68 1069.63 1769.3 1067.95 1785.24 1067.95C1824.66 1067.95 1854.03 1072.99 1860.74 1081.38C1906.04 1141.78 1913.59 1214.77 1883.39 1276.01C1848.99 1343.12 1773.49 1381.71 1678.69 1381.71C1568.79 1381.71 1472.32 1317.95 1469.8 1311.24C1438.76 1250.84 1453.02 1204.7 1471.48 1167.79Z" fill="url(#paint36_linear_8_9)"/>
<path opacity="0.3" d="M1657.72 1324.66C1658.56 1305.37 1661.91 1290.27 1665.27 1290.27C1668.62 1290.27 1668.62 1307.05 1667.79 1326.34C1666.95 1345.64 1663.59 1360.74 1660.24 1360.74C1656.88 1360.74 1656.04 1343.12 1657.72 1324.66Z" fill="url(#paint37_linear_8_9)"/>
<path opacity="0.3" d="M1640.1 1321.31C1644.3 1302.01 1648.49 1286.91 1651.85 1288.59C1655.2 1289.43 1654.36 1305.37 1651.01 1324.66C1646.81 1343.96 1642.62 1359.06 1639.26 1357.38C1635.07 1357.38 1636.74 1340.6 1640.1 1321.31Z" fill="url(#paint38_linear_8_9)"/>
<path opacity="0.3" d="M1623.32 1317.11C1628.36 1298.66 1635.07 1285.23 1638.42 1286.07C1641.78 1286.91 1638.42 1304.53 1633.39 1322.15C1628.36 1340.6 1621.64 1354.03 1618.29 1353.19C1614.93 1352.35 1617.45 1336.41 1623.32 1317.11Z" fill="url(#paint39_linear_8_9)"/>
<path opacity="0.3" d="M1607.38 1310.4C1614.93 1291.95 1622.48 1279.36 1625.84 1280.2C1628.36 1281.04 1623.32 1296.98 1616.61 1315.44C1609.9 1333.89 1601.51 1346.48 1598.15 1345.64C1594.8 1344.8 1598.99 1328.86 1607.38 1310.4Z" fill="url(#paint40_linear_8_9)"/>
<path opacity="0.3" d="M1590.6 1302.85C1599.83 1286.07 1609.06 1274.33 1611.58 1275.17C1614.09 1277.68 1608.22 1291.95 1598.99 1309.56C1590.6 1326.34 1582.21 1338.09 1578.86 1337.25C1575.5 1334.73 1581.38 1319.63 1590.6 1302.85Z" fill="url(#paint41_linear_8_9)"/>
<path opacity="0.3" d="M1576.34 1293.62C1587.25 1277.68 1597.32 1265.94 1599.83 1267.62C1603.19 1268.46 1594.8 1283.56 1583.89 1299.5C1572.99 1315.44 1562.92 1327.18 1560.4 1325.5C1557.89 1322.99 1566.28 1309.56 1576.34 1293.62Z" fill="url(#paint42_linear_8_9)"/>
<path opacity="0.3" d="M1562.08 1281.88C1574.66 1266.78 1586.41 1257.55 1588.93 1259.23C1591.44 1260.91 1582.21 1275.17 1569.63 1290.27C1557.89 1304.53 1546.14 1314.6 1543.62 1312.92C1541.11 1310.4 1550.34 1296.14 1562.08 1281.88Z" fill="url(#paint43_linear_8_9)"/>
<path opacity="0.3" d="M1551.17 1268.46C1566.28 1254.19 1578.02 1245.81 1579.7 1248.32C1582.21 1251.68 1571.31 1264.26 1557.05 1276.85C1541.95 1291.11 1530.2 1299.5 1528.52 1296.98C1526.85 1294.46 1536.91 1282.72 1551.17 1268.46Z" fill="url(#paint44_linear_8_9)"/>
<path opacity="0.3" d="M1540.27 1255.87C1555.37 1244.13 1567.95 1236.58 1570.47 1239.09C1572.99 1241.61 1559.56 1253.36 1544.46 1265.1C1529.36 1276.85 1516.78 1284.4 1514.26 1281.88C1512.58 1279.36 1524.33 1267.62 1540.27 1255.87Z" fill="url(#paint45_linear_8_9)"/>
<path opacity="0.3" d="M1529.36 1240.77C1546.14 1229.87 1559.56 1223.99 1561.24 1226.51C1563.76 1229.87 1549.5 1240.77 1533.56 1250C1516.78 1260.91 1503.36 1266.78 1501.68 1264.26C1500.84 1260.91 1513.42 1251.68 1529.36 1240.77Z" fill="url(#paint46_linear_8_9)"/>
<path opacity="0.3" d="M1521.81 1223.99C1538.59 1216.44 1552.85 1211.41 1554.53 1214.77C1557.05 1218.12 1541.95 1226.51 1524.33 1234.9C1506.71 1243.29 1492.45 1249.16 1491.61 1245.81C1491.61 1243.29 1505.03 1233.22 1521.81 1223.99Z" fill="url(#paint47_linear_8_9)"/>
<path opacity="0.3" d="M1515.94 1208.89C1534.4 1202.18 1548.66 1199.66 1550.34 1202.18C1552.01 1204.7 1536.07 1213.09 1518.46 1218.96C1500 1225.67 1485.74 1228.19 1484.06 1225.67C1482.38 1223.15 1497.48 1215.6 1515.94 1208.89Z" fill="url(#paint48_linear_8_9)"/>
<path opacity="0.3" d="M1512.58 1192.95C1531.04 1188.76 1545.3 1186.24 1546.98 1189.6C1546.98 1192.11 1531.88 1197.99 1512.58 1202.18C1494.13 1206.38 1479.87 1208.89 1478.19 1205.54C1477.35 1202.18 1493.29 1197.15 1512.58 1192.95Z" fill="url(#paint49_linear_8_9)"/>
<path opacity="0.3" d="M1508.39 1173.66C1527.68 1171.14 1543.62 1171.14 1543.62 1174.5C1543.62 1177.85 1527.68 1181.21 1508.39 1183.72C1489.09 1186.24 1473.99 1187.08 1473.99 1183.72C1473.99 1180.37 1489.93 1177.01 1508.39 1173.66Z" fill="url(#paint50_linear_8_9)"/>
<path opacity="0.3" d="M1508.39 1156.88C1527.68 1156.88 1542.79 1157.72 1542.79 1161.07C1543.62 1164.43 1526.85 1167.79 1507.55 1167.79C1488.26 1167.79 1473.15 1166.95 1473.15 1163.59C1472.32 1159.4 1489.09 1157.72 1508.39 1156.88Z" fill="url(#paint51_linear_8_9)"/>
<path opacity="0.3" d="M1835.57 1107.38C1817.11 1114.09 1802.85 1116.61 1801.17 1114.09C1799.5 1111.58 1815.44 1103.19 1833.05 1097.32C1851.51 1090.6 1865.77 1088.09 1867.45 1090.6C1869.13 1093.12 1853.19 1100.67 1835.57 1107.38Z" fill="url(#paint52_linear_8_9)"/>
<path opacity="0.3" d="M1839.77 1123.32C1821.31 1127.52 1807.05 1130.03 1805.37 1126.68C1805.37 1124.16 1820.47 1118.29 1839.77 1114.09C1858.22 1109.9 1872.48 1107.38 1874.16 1110.74C1874.16 1114.09 1859.06 1119.13 1839.77 1123.32Z" fill="url(#paint53_linear_8_9)"/>
<path opacity="0.3" d="M1843.12 1142.62C1823.83 1145.13 1807.89 1145.13 1807.89 1141.78C1807.89 1138.42 1823.83 1134.23 1843.12 1132.55C1862.42 1129.19 1877.52 1129.19 1877.52 1132.55C1878.36 1135.07 1860.74 1138.42 1843.12 1142.62Z" fill="url(#paint54_linear_8_9)"/>
<path opacity="0.3" d="M1843.96 1158.56C1824.66 1158.56 1809.56 1157.72 1809.56 1154.36C1808.72 1151.01 1825.5 1147.65 1844.8 1147.65C1864.09 1147.65 1879.19 1148.49 1879.19 1151.85C1879.19 1155.2 1862.42 1158.56 1843.96 1158.56Z" fill="url(#paint55_linear_8_9)"/>
<path opacity="0.3" d="M1841.44 1176.17C1822.15 1175.34 1807.05 1171.98 1807.05 1168.62C1807.05 1165.27 1823.83 1165.27 1843.12 1166.11C1862.42 1166.95 1877.52 1170.3 1877.52 1173.66C1878.36 1177.01 1860.74 1177.85 1841.44 1176.17Z" fill="url(#paint56_linear_8_9)"/>
<path opacity="0.3" d="M1839.77 1193.79C1820.47 1189.6 1805.37 1185.4 1807.05 1182.05C1807.89 1178.69 1823.83 1179.53 1843.12 1182.89C1862.42 1187.08 1877.52 1191.28 1875.84 1194.63C1875 1197.99 1857.38 1197.15 1839.77 1193.79Z" fill="url(#paint57_linear_8_9)"/>
<path opacity="0.3" d="M1833.89 1209.73C1815.44 1204.7 1802.01 1197.99 1802.85 1194.63C1803.69 1191.28 1821.31 1194.63 1838.93 1199.66C1857.38 1204.7 1870.81 1211.41 1869.97 1214.77C1869.13 1218.12 1852.35 1215.6 1833.89 1209.73Z" fill="url(#paint58_linear_8_9)"/>
<path opacity="0.3" d="M1828.02 1225.67C1809.56 1218.12 1796.98 1210.57 1797.82 1207.21C1798.66 1204.7 1814.6 1209.73 1833.05 1216.44C1851.51 1223.99 1864.09 1231.54 1863.26 1234.9C1862.42 1239.09 1845.64 1234.9 1828.02 1225.67Z" fill="url(#paint59_linear_8_9)"/>
<path opacity="0.3" d="M1820.47 1243.29C1803.69 1234.06 1791.95 1224.83 1792.79 1222.32C1795.3 1219.8 1809.56 1225.67 1827.18 1234.9C1843.96 1243.29 1855.7 1251.68 1854.87 1255.03C1852.35 1258.39 1837.25 1252.52 1820.47 1243.29Z" fill="url(#paint60_linear_8_9)"/>
<path opacity="0.3" d="M1810.4 1256.71C1794.46 1245.81 1782.72 1235.74 1784.4 1233.22C1785.23 1229.87 1800.34 1238.25 1816.28 1249.16C1832.21 1260.07 1843.96 1270.13 1842.28 1272.65C1841.44 1276.01 1827.18 1267.62 1810.4 1256.71Z" fill="url(#paint61_linear_8_9)"/>
<path opacity="0.3" d="M1798.66 1271.81C1783.56 1259.23 1774.33 1247.48 1776.01 1244.97C1778.52 1242.45 1791.95 1251.68 1807.05 1264.26C1821.31 1276.01 1831.38 1287.75 1829.7 1290.27C1828.02 1292.79 1813.76 1283.56 1798.66 1271.81Z" fill="url(#paint62_linear_8_9)"/>
<path opacity="0.3" d="M1786.07 1282.72C1771.81 1267.62 1763.42 1255.87 1765.94 1254.19C1769.3 1251.68 1781.88 1262.58 1794.46 1276.85C1808.72 1291.95 1817.11 1303.69 1814.6 1305.37C1812.08 1307.05 1800.34 1297.82 1786.07 1282.72Z" fill="url(#paint63_linear_8_9)"/>
<path opacity="0.3" d="M1773.49 1293.62C1761.75 1278.52 1754.19 1265.94 1756.71 1263.42C1759.23 1260.91 1770.97 1274.33 1782.72 1289.43C1794.46 1304.53 1802.01 1317.11 1799.5 1319.63C1796.98 1321.31 1785.24 1309.56 1773.49 1293.62Z" fill="url(#paint64_linear_8_9)"/>
<path opacity="0.3" d="M1758.39 1303.69C1747.48 1286.91 1741.61 1273.49 1744.13 1271.81C1747.48 1269.3 1758.39 1283.56 1767.62 1299.5C1778.52 1316.28 1784.4 1329.7 1781.88 1331.38C1778.52 1333.05 1769.3 1319.63 1758.39 1303.69Z" fill="url(#paint65_linear_8_9)"/>
<path opacity="0.3" d="M1741.61 1311.24C1734.06 1294.46 1729.03 1279.36 1732.38 1278.52C1735.74 1276.01 1744.13 1291.11 1752.52 1308.72C1760.91 1325.5 1766.78 1340.6 1763.42 1341.44C1760.91 1342.28 1750.84 1328.86 1741.61 1311.24Z" fill="url(#paint66_linear_8_9)"/>
<path opacity="0.3" d="M1726.51 1317.95C1719.8 1299.5 1717.28 1285.23 1719.8 1283.56C1722.32 1281.88 1730.7 1297.82 1736.58 1315.44C1743.29 1333.89 1745.81 1348.15 1743.29 1349.83C1740.77 1351.51 1732.38 1336.41 1726.51 1317.95Z" fill="url(#paint67_linear_8_9)"/>
<path opacity="0.3" d="M1710.57 1321.31C1706.38 1302.85 1703.86 1288.59 1707.21 1286.91C1709.73 1286.91 1715.6 1302.01 1719.8 1321.31C1723.99 1339.77 1726.51 1354.03 1723.15 1355.7C1719.8 1356.54 1714.76 1340.6 1710.57 1321.31Z" fill="url(#paint68_linear_8_9)"/>
<path opacity="0.3" d="M1691.28 1325.5C1688.76 1306.21 1688.76 1290.27 1692.11 1290.27C1695.47 1290.27 1699.66 1306.21 1701.34 1325.5C1704.7 1344.8 1704.7 1359.9 1701.34 1359.9C1699.66 1359.9 1695.47 1343.12 1691.28 1325.5Z" fill="url(#paint69_linear_8_9)"/>
<path opacity="0.3" d="M1675.34 1326.34C1675.34 1307.05 1676.17 1291.95 1679.53 1291.95C1682.89 1291.11 1686.24 1307.89 1686.24 1327.18C1686.24 1346.48 1685.4 1361.58 1682.05 1361.58C1677.85 1361.58 1675.34 1344.8 1675.34 1326.34Z" fill="url(#paint70_linear_8_9)"/>
<path d="M1518.46 1177.85C1518.46 1157.72 1521.81 1138.42 1526.85 1119.97C1580.54 1093.12 1660.24 1075.5 1734.06 1069.63C1750.84 1069.63 1768.46 1067.95 1784.4 1067.95H1796.98C1820.47 1099.83 1832.21 1140.94 1832.21 1185.4C1832.21 1281.04 1773.49 1354.87 1677.01 1354.87C1580.54 1354.87 1518.46 1273.49 1518.46 1177.85Z" fill="#FFFBDE"/>
<path d="M1542.79 1177.85C1542.79 1151.85 1548.66 1127.52 1558.72 1106.54C1609.06 1087.25 1673.66 1074.66 1734.9 1069.63C1745.81 1069.63 1755.87 1068.79 1766.78 1068.79C1794.46 1096.48 1810.4 1138.42 1810.4 1184.56C1810.4 1266.78 1760.07 1328.86 1678.69 1328.86C1597.32 1328.86 1542.79 1260.07 1542.79 1177.85Z" fill="black"/>
<g opacity="0.85">
<path d="M1611.58 1222.32C1595.64 1229.03 1591.44 1250 1600.67 1270.13C1609.9 1290.27 1630.03 1299.5 1644.3 1292.79C1660.23 1286.07 1664.43 1265.1 1655.2 1244.97C1645.97 1224.83 1627.52 1214.77 1611.58 1222.32ZM1733.22 1178.69C1725.67 1185.4 1726.51 1199.66 1734.9 1208.89C1742.45 1218.12 1755.87 1220.64 1764.26 1213.93C1772.65 1207.21 1770.97 1192.95 1762.58 1183.72C1755.03 1174.5 1741.61 1171.98 1733.22 1178.69Z" fill="white"/>
</g>
<path d="M1436.24 1352.35C1434.56 1366.61 1458.89 1372.48 1468.12 1361.58C1498.32 1369.13 1528.52 1379.19 1555.37 1388.42C1694.63 1435.4 1928.69 1366.61 1920.3 1210.57C1917.79 1165.27 1893.46 1097.32 1863.26 1060.4C1743.29 1047.82 1494.97 1058.72 1438.76 1189.6C1423.66 1231.54 1436.24 1332.21 1436.24 1352.35ZM1480.7 1174.5C1507.55 1122.48 1625.84 1089.77 1732.38 1081.38C1749.16 1081.38 1765.1 1079.7 1780.2 1079.7C1817.95 1079.7 1845.64 1084.73 1852.35 1092.28C1895.13 1150.17 1902.68 1219.8 1874.16 1277.68C1841.44 1342.28 1769.3 1378.36 1678.69 1378.36C1573.83 1378.36 1481.54 1317.95 1479.03 1311.24C1448.83 1253.36 1463.09 1209.73 1480.7 1174.5Z" fill="black"/>
</g>
<defs>
<linearGradient id="paint0_linear_8_9" x1="44.1946" y1="1250" x2="2455.81" y2="1250" gradientUnits="userSpaceOnUse">
<stop stop-color="#FFC900"/>
<stop offset="1" stop-color="#FF9700"/>
</linearGradient>
<linearGradient id="paint1_linear_8_9" x1="599.169" y1="1222.83" x2="1048.7" y2="1222.83" gradientUnits="userSpaceOnUse">
<stop stop-color="#FFD800"/>
<stop offset="1" stop-color="#FFB700"/>
</linearGradient>
<linearGradient id="paint2_linear_8_9" x1="831.804" y1="1322.84" x2="843.171" y2="1322.84" gradientUnits="userSpaceOnUse">
<stop stop-color="#FFD800"/>
<stop offset="1" stop-color="#FFB700"/>
</linearGradient>
<linearGradient id="paint3_linear_8_9" x1="846.535" y1="1320.16" x2="863.23" y2="1320.16" gradientUnits="userSpaceOnUse">
<stop stop-color="#FFD800"/>
<stop offset="1" stop-color="#FFB700"/>
</linearGradient>
<linearGradient id="paint4_linear_8_9" x1="860.008" y1="1316.95" x2="883.062" y2="1316.95" gradientUnits="userSpaceOnUse">
<stop stop-color="#FFD800"/>
<stop offset="1" stop-color="#FFB700"/>
</linearGradient>
<linearGradient id="paint5_linear_8_9" x1="873.548" y1="1310.55" x2="902.953" y2="1310.55" gradientUnits="userSpaceOnUse">
<stop stop-color="#FFD800"/>
<stop offset="1" stop-color="#FFB700"/>
</linearGradient>
<linearGradient id="paint6_linear_8_9" x1="887.517" y1="1303.6" x2="922.047" y2="1303.6" gradientUnits="userSpaceOnUse">
<stop stop-color="#FFD800"/>
<stop offset="1" stop-color="#FFB700"/>
</linearGradient>
<linearGradient id="paint7_linear_8_9" x1="899.052" y1="1293.98" x2="939.958" y2="1293.98" gradientUnits="userSpaceOnUse">
<stop stop-color="#FFD800"/>
<stop offset="1" stop-color="#FFB700"/>
</linearGradient>
<linearGradient id="paint8_linear_8_9" x1="911.158" y1="1283.28" x2="956.695" y2="1283.28" gradientUnits="userSpaceOnUse">
<stop stop-color="#FFD800"/>
<stop offset="1" stop-color="#FFB700"/>
</linearGradient>
<linearGradient id="paint9_linear_8_9" x1="919.757" y1="1270.47" x2="971.594" y2="1270.47" gradientUnits="userSpaceOnUse">
<stop stop-color="#FFD800"/>
<stop offset="1" stop-color="#FFB700"/>
</linearGradient>
<linearGradient id="paint10_linear_8_9" x1="929.404" y1="1257.65" x2="985.453" y2="1257.65" gradientUnits="userSpaceOnUse">
<stop stop-color="#FFD800"/>
<stop offset="1" stop-color="#FFB700"/>
</linearGradient>
<linearGradient id="paint11_linear_8_9" x1="937.961" y1="1243.22" x2="998.087" y2="1243.22" gradientUnits="userSpaceOnUse">
<stop stop-color="#FFD800"/>
<stop offset="1" stop-color="#FFB700"/>
</linearGradient>
<linearGradient id="paint12_linear_8_9" x1="944.387" y1="1227.19" x2="1007.7" y2="1227.19" gradientUnits="userSpaceOnUse">
<stop stop-color="#FFD800"/>
<stop offset="1" stop-color="#FFB700"/>
</linearGradient>
<linearGradient id="paint13_linear_8_9" x1="949.874" y1="1211.69" x2="1016.24" y2="1211.69" gradientUnits="userSpaceOnUse">
<stop stop-color="#FFD800"/>
<stop offset="1" stop-color="#FFB700"/>
</linearGradient>
<linearGradient id="paint14_linear_8_9" x1="953.137" y1="1195.13" x2="1021.58" y2="1195.13" gradientUnits="userSpaceOnUse">
<stop stop-color="#FFD800"/>
<stop offset="1" stop-color="#FFB700"/>
</linearGradient>
<linearGradient id="paint15_linear_8_9" x1="956.342" y1="1176.89" x2="1025.8" y2="1176.89" gradientUnits="userSpaceOnUse">
<stop stop-color="#FFD800"/>
<stop offset="1" stop-color="#FFB700"/>
</linearGradient>
<linearGradient id="paint16_linear_8_9" x1="957.357" y1="1159.34" x2="1026.91" y2="1159.34" gradientUnits="userSpaceOnUse">
<stop stop-color="#FFD800"/>
<stop offset="1" stop-color="#FFB700"/>
</linearGradient>
<linearGradient id="paint17_linear_8_9" x1="632.5" y1="1099.5" x2="698.859" y2="1099.5" gradientUnits="userSpaceOnUse">
<stop stop-color="#FFD800"/>
<stop offset="1" stop-color="#FFB700"/>
</linearGradient>
<linearGradient id="paint18_linear_8_9" x1="626.132" y1="1116.06" x2="694.53" y2="1116.06" gradientUnits="userSpaceOnUse">
<stop stop-color="#FFD800"/>
<stop offset="1" stop-color="#FFB700"/>
</linearGradient>
<linearGradient id="paint19_linear_8_9" x1="622.878" y1="1134.3" x2="692.391" y2="1134.3" gradientUnits="userSpaceOnUse">
<stop stop-color="#FFD800"/>
<stop offset="1" stop-color="#FFB700"/>
</linearGradient>
<linearGradient id="paint20_linear_8_9" x1="620.789" y1="1150.79" x2="690.302" y2="1150.79" gradientUnits="userSpaceOnUse">
<stop stop-color="#FFD800"/>
<stop offset="1" stop-color="#FFB700"/>
</linearGradient>
<linearGradient id="paint21_linear_8_9" x1="621.862" y1="1168.66" x2="692.391" y2="1168.66" gradientUnits="userSpaceOnUse">
<stop stop-color="#FFD800"/>
<stop offset="1" stop-color="#FFB700"/>
</linearGradient>
<linearGradient id="paint22_linear_8_9" x1="623.943" y1="1186.05" x2="693.507" y2="1186.05" gradientUnits="userSpaceOnUse">
<stop stop-color="#FFD800"/>
<stop offset="1" stop-color="#FFB700"/>
</linearGradient>
<linearGradient id="paint23_linear_8_9" x1="629.287" y1="1202.62" x2="696.72" y2="1202.62" gradientUnits="userSpaceOnUse">
<stop stop-color="#FFD800"/>
<stop offset="1" stop-color="#FFB700"/>
</linearGradient>
<linearGradient id="paint24_linear_8_9" x1="636.762" y1="1219.44" x2="702.072" y2="1219.44" gradientUnits="userSpaceOnUse">
<stop stop-color="#FFD800"/>
<stop offset="1" stop-color="#FFB700"/>
</linearGradient>
<linearGradient id="paint25_linear_8_9" x1="645.31" y1="1235.97" x2="707.425" y2="1235.97" gradientUnits="userSpaceOnUse">
<stop stop-color="#FFD800"/>
<stop offset="1" stop-color="#FFB700"/>
</linearGradient>
<linearGradient id="paint26_linear_8_9" x1="656.888" y1="1250.7" x2="715.092" y2="1250.7" gradientUnits="userSpaceOnUse">
<stop stop-color="#FFD800"/>
<stop offset="1" stop-color="#FFB700"/>
</linearGradient>
<linearGradient id="paint27_linear_8_9" x1="669.689" y1="1265.13" x2="723.691" y2="1265.13" gradientUnits="userSpaceOnUse">
<stop stop-color="#FFD800"/>
<stop offset="1" stop-color="#FFB700"/>
</linearGradient>
<linearGradient id="paint28_linear_8_9" x1="684.606" y1="1276.9" x2="734.413" y2="1276.9" gradientUnits="userSpaceOnUse">
<stop stop-color="#FFD800"/>
<stop offset="1" stop-color="#FFB700"/>
</linearGradient>
<linearGradient id="paint29_linear_8_9" x1="700.604" y1="1288.65" x2="744.077" y2="1288.65" gradientUnits="userSpaceOnUse">
<stop stop-color="#FFD800"/>
<stop offset="1" stop-color="#FFB700"/>
</linearGradient>
<linearGradient id="paint30_linear_8_9" x1="717.24" y1="1299.24" x2="756.3" y2="1299.24" gradientUnits="userSpaceOnUse">
<stop stop-color="#FFD800"/>
<stop offset="1" stop-color="#FFB700"/>
</linearGradient>
<linearGradient id="paint31_linear_8_9" x1="736.376" y1="1307.27" x2="769.253" y2="1307.27" gradientUnits="userSpaceOnUse">
<stop stop-color="#FFD800"/>
<stop offset="1" stop-color="#FFB700"/>
</linearGradient>
<linearGradient id="paint32_linear_8_9" x1="755.302" y1="1314.29" x2="781.326" y2="1314.29" gradientUnits="userSpaceOnUse">
<stop stop-color="#FFD800"/>
<stop offset="1" stop-color="#FFB700"/>
</linearGradient>
<linearGradient id="paint33_linear_8_9" x1="775.327" y1="1318.58" x2="794.438" y2="1318.58" gradientUnits="userSpaceOnUse">
<stop stop-color="#FFD800"/>
<stop offset="1" stop-color="#FFB700"/>
</linearGradient>
<linearGradient id="paint34_linear_8_9" x1="795.839" y1="1322.3" x2="810.419" y2="1322.3" gradientUnits="userSpaceOnUse">
<stop stop-color="#FFD800"/>
<stop offset="1" stop-color="#FFB700"/>
</linearGradient>
<linearGradient id="paint35_linear_8_9" x1="824.983" y1="1324.42" x2="814.295" y2="1324.42" gradientUnits="userSpaceOnUse">
<stop stop-color="#FFD800"/>
<stop offset="1" stop-color="#FFB700"/>
</linearGradient>
<linearGradient id="paint36_linear_8_9" x1="1900.83" y1="1225.35" x2="1451.3" y2="1225.35" gradientUnits="userSpaceOnUse">
<stop stop-color="#FFD800"/>
<stop offset="1" stop-color="#FFB700"/>
</linearGradient>
<linearGradient id="paint37_linear_8_9" x1="1668.2" y1="1325.37" x2="1656.82" y2="1325.37" gradientUnits="userSpaceOnUse">
<stop stop-color="#FFD800"/>
<stop offset="1" stop-color="#FFB700"/>
</linearGradient>
<linearGradient id="paint38_linear_8_9" x1="1653.46" y1="1322.69" x2="1636.77" y2="1322.69" gradientUnits="userSpaceOnUse">
<stop stop-color="#FFD800"/>
<stop offset="1" stop-color="#FFB700"/>
</linearGradient>
<linearGradient id="paint39_linear_8_9" x1="1639.99" y1="1319.49" x2="1616.94" y2="1319.49" gradientUnits="userSpaceOnUse">
<stop stop-color="#FFD800"/>
<stop offset="1" stop-color="#FFB700"/>
</linearGradient>
<linearGradient id="paint40_linear_8_9" x1="1626.45" y1="1313.08" x2="1597.05" y2="1313.08" gradientUnits="userSpaceOnUse">
<stop stop-color="#FFD800"/>
<stop offset="1" stop-color="#FFB700"/>
</linearGradient>
<linearGradient id="paint41_linear_8_9" x1="1612.48" y1="1306.13" x2="1577.95" y2="1306.13" gradientUnits="userSpaceOnUse">
<stop stop-color="#FFD800"/>
<stop offset="1" stop-color="#FFB700"/>
</linearGradient>
<linearGradient id="paint42_linear_8_9" x1="1600.95" y1="1296.51" x2="1560.04" y2="1296.51" gradientUnits="userSpaceOnUse">
<stop stop-color="#FFD800"/>
<stop offset="1" stop-color="#FFB700"/>
</linearGradient>
<linearGradient id="paint43_linear_8_9" x1="1588.84" y1="1285.81" x2="1543.31" y2="1285.81" gradientUnits="userSpaceOnUse">
<stop stop-color="#FFD800"/>
<stop offset="1" stop-color="#FFB700"/>
</linearGradient>
<linearGradient id="paint44_linear_8_9" x1="1580.24" y1="1273" x2="1528.41" y2="1273" gradientUnits="userSpaceOnUse">
<stop stop-color="#FFD800"/>
<stop offset="1" stop-color="#FFB700"/>
</linearGradient>
<linearGradient id="paint45_linear_8_9" x1="1570.6" y1="1260.18" x2="1514.54" y2="1260.18" gradientUnits="userSpaceOnUse">
<stop stop-color="#FFD800"/>
<stop offset="1" stop-color="#FFB700"/>
</linearGradient>
<linearGradient id="paint46_linear_8_9" x1="1562.04" y1="1245.76" x2="1501.91" y2="1245.76" gradientUnits="userSpaceOnUse">
<stop stop-color="#FFD800"/>
<stop offset="1" stop-color="#FFB700"/>
</linearGradient>
<linearGradient id="paint47_linear_8_9" x1="1555.61" y1="1229.72" x2="1492.3" y2="1229.72" gradientUnits="userSpaceOnUse">
<stop stop-color="#FFD800"/>
<stop offset="1" stop-color="#FFB700"/>
</linearGradient>
<linearGradient id="paint48_linear_8_9" x1="1550.13" y1="1214.23" x2="1483.76" y2="1214.23" gradientUnits="userSpaceOnUse">
<stop stop-color="#FFD800"/>
<stop offset="1" stop-color="#FFB700"/>
</linearGradient>
<linearGradient id="paint49_linear_8_9" x1="1546.86" y1="1197.67" x2="1478.42" y2="1197.67" gradientUnits="userSpaceOnUse">
<stop stop-color="#FFD800"/>
<stop offset="1" stop-color="#FFB700"/>
</linearGradient>
<linearGradient id="paint50_linear_8_9" x1="1543.67" y1="1179.42" x2="1474.2" y2="1179.42" gradientUnits="userSpaceOnUse">
<stop stop-color="#FFD800"/>
<stop offset="1" stop-color="#FFB700"/>
</linearGradient>
<linearGradient id="paint51_linear_8_9" x1="1542.64" y1="1161.86" x2="1473.09" y2="1161.86" gradientUnits="userSpaceOnUse">
<stop stop-color="#FFD800"/>
<stop offset="1" stop-color="#FFB700"/>
</linearGradient>
<linearGradient id="paint52_linear_8_9" x1="1867.51" y1="1102.02" x2="1801.14" y2="1102.02" gradientUnits="userSpaceOnUse">
<stop stop-color="#FFD800"/>
<stop offset="1" stop-color="#FFB700"/>
</linearGradient>
<linearGradient id="paint53_linear_8_9" x1="1873.87" y1="1118.59" x2="1805.47" y2="1118.59" gradientUnits="userSpaceOnUse">
<stop stop-color="#FFD800"/>
<stop offset="1" stop-color="#FFB700"/>
</linearGradient>
<linearGradient id="paint54_linear_8_9" x1="1877.12" y1="1136.83" x2="1807.61" y2="1136.83" gradientUnits="userSpaceOnUse">
<stop stop-color="#FFD800"/>
<stop offset="1" stop-color="#FFB700"/>
</linearGradient>
<linearGradient id="paint55_linear_8_9" x1="1879.21" y1="1153.32" x2="1809.7" y2="1153.32" gradientUnits="userSpaceOnUse">
<stop stop-color="#FFD800"/>
<stop offset="1" stop-color="#FFB700"/>
</linearGradient>
<linearGradient id="paint56_linear_8_9" x1="1878.14" y1="1171.18" x2="1807.61" y2="1171.18" gradientUnits="userSpaceOnUse">
<stop stop-color="#FFD800"/>
<stop offset="1" stop-color="#FFB700"/>
</linearGradient>
<linearGradient id="paint57_linear_8_9" x1="1876.06" y1="1188.58" x2="1806.48" y2="1188.58" gradientUnits="userSpaceOnUse">
<stop stop-color="#FFD800"/>
<stop offset="1" stop-color="#FFB700"/>
</linearGradient>
<linearGradient id="paint58_linear_8_9" x1="1870.71" y1="1205.14" x2="1803.27" y2="1205.14" gradientUnits="userSpaceOnUse">
<stop stop-color="#FFD800"/>
<stop offset="1" stop-color="#FFB700"/>
</linearGradient>
<linearGradient id="paint59_linear_8_9" x1="1863.24" y1="1221.96" x2="1797.93" y2="1221.96" gradientUnits="userSpaceOnUse">
<stop stop-color="#FFD800"/>
<stop offset="1" stop-color="#FFB700"/>
</linearGradient>
<linearGradient id="paint60_linear_8_9" x1="1854.69" y1="1238.51" x2="1792.58" y2="1238.51" gradientUnits="userSpaceOnUse">
<stop stop-color="#FFD800"/>
<stop offset="1" stop-color="#FFB700"/>
</linearGradient>
<linearGradient id="paint61_linear_8_9" x1="1843.11" y1="1253.24" x2="1784.91" y2="1253.24" gradientUnits="userSpaceOnUse">
<stop stop-color="#FFD800"/>
<stop offset="1" stop-color="#FFB700"/>
</linearGradient>
<linearGradient id="paint62_linear_8_9" x1="1830.31" y1="1267.66" x2="1776.31" y2="1267.66" gradientUnits="userSpaceOnUse">
<stop stop-color="#FFD800"/>
<stop offset="1" stop-color="#FFB700"/>
</linearGradient>
<linearGradient id="paint63_linear_8_9" x1="1815.39" y1="1279.43" x2="1765.59" y2="1279.43" gradientUnits="userSpaceOnUse">
<stop stop-color="#FFD800"/>
<stop offset="1" stop-color="#FFB700"/>
</linearGradient>
<linearGradient id="paint64_linear_8_9" x1="1799.4" y1="1291.18" x2="1755.92" y2="1291.18" gradientUnits="userSpaceOnUse">
<stop stop-color="#FFD800"/>
<stop offset="1" stop-color="#FFB700"/>
</linearGradient>
<linearGradient id="paint65_linear_8_9" x1="1782.76" y1="1301.78" x2="1743.7" y2="1301.78" gradientUnits="userSpaceOnUse">
<stop stop-color="#FFD800"/>
<stop offset="1" stop-color="#FFB700"/>
</linearGradient>
<linearGradient id="paint66_linear_8_9" x1="1763.62" y1="1309.8" x2="1730.75" y2="1309.8" gradientUnits="userSpaceOnUse">
<stop stop-color="#FFD800"/>
<stop offset="1" stop-color="#FFB700"/>
</linearGradient>
<linearGradient id="paint67_linear_8_9" x1="1744.7" y1="1316.82" x2="1718.67" y2="1316.82" gradientUnits="userSpaceOnUse">
<stop stop-color="#FFD800"/>
<stop offset="1" stop-color="#FFB700"/>
</linearGradient>
<linearGradient id="paint68_linear_8_9" x1="1724.67" y1="1321.12" x2="1705.56" y2="1321.12" gradientUnits="userSpaceOnUse">
<stop stop-color="#FFD800"/>
<stop offset="1" stop-color="#FFB700"/>
</linearGradient>
<linearGradient id="paint69_linear_8_9" x1="1704.16" y1="1324.83" x2="1689.58" y2="1324.83" gradientUnits="userSpaceOnUse">
<stop stop-color="#FFD800"/>
<stop offset="1" stop-color="#FFB700"/>
</linearGradient>
<linearGradient id="paint70_linear_8_9" x1="1675.01" y1="1326.95" x2="1685.7" y2="1326.95" gradientUnits="userSpaceOnUse">
<stop stop-color="#FFD800"/>
<stop offset="1" stop-color="#FFB700"/>
</linearGradient>
<clipPath id="clip0_8_9">
<rect width="2500" height="2500" fill="white"/>
</clipPath>
</defs>
</svg>
