<svg width="601" height="600" viewBox="0 0 601 600" fill="none" xmlns="http://www.w3.org/2000/svg">
<path d="M300.007 600C465.692 600 600.007 465.685 600.007 300C600.007 134.315 465.692 0 300.007 0C134.321 0 0.00683594 134.315 0.00683594 300C0.00683594 465.685 134.321 600 300.007 600Z" fill="#8F8C99"/>
<path d="M483.768 215.601C470.911 221.302 457.082 225.158 442.579 226.88C457.387 218.008 468.751 203.97 474.115 187.215C460.259 195.435 444.905 201.398 428.578 204.612C415.498 190.681 396.861 181.974 376.224 181.974C336.629 181.974 304.515 214.088 304.515 253.683C304.515 259.303 305.152 264.774 306.382 270.026C246.786 267.036 193.944 238.49 158.574 195.092C152.403 205.681 148.863 218.008 148.863 231.147C148.863 256.02 161.531 277.978 180.762 290.834C169.013 290.465 157.948 287.24 148.285 281.855C148.28 282.16 148.28 282.465 148.28 282.764C148.28 317.509 173.008 346.488 205.806 353.071C199.795 354.719 193.447 355.59 186.917 355.59C182.286 355.59 177.799 355.146 173.425 354.312C182.548 382.794 209.025 403.528 240.411 404.111C215.865 423.347 184.949 434.807 151.344 434.807C145.568 434.807 139.846 434.47 134.247 433.801C165.965 454.155 203.667 466.022 244.16 466.022C376.058 466.022 448.189 356.756 448.189 261.988C448.189 258.881 448.119 255.784 447.98 252.715C462.002 242.608 474.158 229.981 483.768 215.601Z" fill="#F1F2F2"/>
</svg>
