<svg width="600" height="600" viewBox="0 0 600 600" fill="none" xmlns="http://www.w3.org/2000/svg">
<g clip-path="url(#clip0_10_38)">
<path d="M300 600C465.685 600 600 465.685 600 300C600 134.315 465.685 0 300 0C134.315 0 0 134.315 0 300C0 465.685 134.315 600 300 600Z" fill="#8F8C99"/>
<path fill-rule="evenodd" clip-rule="evenodd" d="M288.668 431.577H312.214C312.214 431.577 319.327 430.796 322.958 426.881C326.3 423.288 326.193 416.539 326.193 416.539C326.193 416.539 325.733 384.944 340.397 380.292C354.852 375.709 373.414 410.827 393.089 424.331C407.966 434.55 419.271 432.309 419.271 432.309L471.878 431.577C471.878 431.577 499.397 429.882 486.349 408.244C485.279 406.474 478.749 392.239 447.235 362.986C414.25 332.37 418.667 337.322 458.401 284.363C482.6 252.111 492.274 232.42 489.253 223.987C486.37 215.954 468.573 218.077 468.573 218.077L409.341 218.446C409.341 218.446 404.95 217.847 401.693 219.794C398.511 221.703 396.463 226.152 396.463 226.152C396.463 226.152 387.088 251.111 374.585 272.336C348.21 317.124 337.664 319.487 333.354 316.706C323.327 310.225 325.83 290.668 325.83 276.775C325.83 233.372 332.413 215.275 313.011 210.59C306.572 209.034 301.834 208.007 285.368 207.842C264.234 207.622 246.345 207.906 236.217 212.869C229.479 216.168 224.28 223.521 227.446 223.944C231.361 224.468 240.228 226.334 244.928 232.736C250.998 240.993 250.784 259.539 250.784 259.539C250.784 259.539 254.271 310.631 242.639 316.979C234.655 321.332 223.703 312.444 200.189 271.812C188.14 250.998 179.044 227.992 179.044 227.992C179.044 227.992 177.29 223.692 174.161 221.393C170.364 218.607 165.059 217.719 165.059 217.719L108.774 218.088C108.774 218.088 100.324 218.323 97.2225 221.997C94.463 225.265 97.0032 232.024 97.0032 232.024C97.0032 232.024 141.069 335.119 190.964 387.073C236.714 434.705 288.668 431.577 288.668 431.577Z" fill="white"/>
</g>
<defs>
<clipPath id="clip0_10_38">
<rect width="600" height="600" fill="white"/>
</clipPath>
</defs>
</svg>
